<svg width="333" height="270" viewBox="0 0 333 270" fill="none" xmlns="http://www.w3.org/2000/svg">
<path d="M308.598 248.295C308.598 248.295 308.421 246.183 309.47 245.231C310.518 244.279 312.504 243.659 313.242 241.887C313.98 240.115 312.733 237.996 314.8 235.937C316.867 233.877 317.014 234.342 317.413 230.843C317.812 227.343 320.189 227.513 321.038 225.549C321.887 223.586 320.654 221.208 323.253 218.425C325.851 215.642 324.294 212.704 325.615 211.257C326.937 209.81 328.169 209.478 328.642 207.041C329.114 204.605 327.424 204.088 328.575 201.423C329.727 198.758 328.716 197.666 327.749 198.921C326.782 200.176 325.881 201.667 323.659 202.612C321.437 203.557 320.868 205.727 320.868 207.78C320.868 209.832 316.97 210.349 316.247 211.87C315.523 213.39 316.129 216.181 314.29 217.849C312.452 219.518 310.666 219.931 310.555 222.183C310.444 224.435 307.742 224.206 306.62 226.664C305.498 229.123 306.745 230.082 305.247 232.068C303.748 234.054 300.817 233.707 300.596 236.66C300.374 239.613 299.119 240.602 296.779 242.751L308.598 248.295Z" fill="#0D6073"/>
<path d="M325.246 205.794L303.556 246.154" stroke="#263238" stroke-linecap="round" stroke-linejoin="round"/>
<path d="M305.247 237.59L306.118 241.289L309.595 240.418" stroke="#263238" stroke-linecap="round" stroke-linejoin="round"/>
<path d="M309.521 228.665L310.666 232.88L314.431 231.418" stroke="#263238" stroke-linecap="round" stroke-linejoin="round"/>
<path d="M313.412 220.994L314.837 225.402L318.683 223.814" stroke="#263238" stroke-linecap="round" stroke-linejoin="round"/>
<path d="M317.73 213.959L318.963 217.731L322.153 216.196" stroke="#263238" stroke-linecap="round" stroke-linejoin="round"/>
<path opacity="0.2" d="M308.598 248.295C308.598 248.295 308.421 246.183 309.47 245.231C310.518 244.279 312.504 243.659 313.242 241.887C313.98 240.115 312.733 237.996 314.8 235.937C316.867 233.877 317.014 234.342 317.413 230.843C317.812 227.343 320.189 227.513 321.038 225.549C321.887 223.586 320.654 221.208 323.253 218.425C325.851 215.642 324.294 212.704 325.615 211.257C326.937 209.81 328.169 209.478 328.642 207.041C329.114 204.605 327.424 204.088 328.575 201.423C329.727 198.758 328.716 197.666 327.749 198.921C326.782 200.176 325.881 201.667 323.659 202.612C321.437 203.557 320.868 205.727 320.868 207.78C320.868 209.832 316.97 210.349 316.247 211.87C315.523 213.39 316.129 216.181 314.29 217.849C312.452 219.518 310.666 219.931 310.555 222.183C310.444 224.435 307.742 224.206 306.62 226.664C305.498 229.123 306.745 230.082 305.247 232.068C303.748 234.054 300.817 233.707 300.596 236.66C300.374 239.613 299.119 240.602 296.779 242.751L308.598 248.295Z" fill="black"/>
<path d="M38.8349 237.428C38.8349 237.428 35.3947 235.878 35.2913 232.843C35.2175 230.798 35.8745 227.58 34.5531 225.121C33.2316 222.663 29.7471 222.102 29.3853 217.916C29.0236 213.73 29.6216 214.003 26.1223 210.305C22.623 206.606 24.9706 204.148 23.5605 201.416C22.1505 198.685 18.3928 197.85 17.6545 192.387C16.9163 186.924 12.2358 185.957 11.8519 183.152C11.468 180.346 12.221 178.663 9.93984 175.895C7.65865 173.126 5.55464 174.544 3.62043 170.793C1.68621 167.043 -0.432561 167.169 0.0768305 169.406C0.586222 171.642 1.41306 174.012 0.445955 177.386C-0.521151 180.76 1.33924 183.358 3.63519 185.263C5.93115 187.168 2.89694 191.966 3.93049 194.181C4.96404 196.396 8.62576 198.278 8.78817 201.866C8.95059 205.454 7.76938 207.817 10.1761 209.987C12.5828 212.158 9.83648 214.985 11.5345 218.507C13.2324 222.028 15.4693 221.511 16.2888 225.018C17.1082 228.525 14.074 231.426 17.123 234.423C20.172 237.42 20.1794 239.679 20.3861 244.286L38.8349 237.428Z" fill="#0D6073"/>
<path d="M4.18164 176.412L30.2271 240.403" stroke="#263238" stroke-linecap="round" stroke-linejoin="round"/>
<path d="M21.8921 230.215L27.0377 232.755L29.3632 227.875" stroke="#263238" stroke-linecap="round" stroke-linejoin="round"/>
<path d="M15.6392 216.668L21.6264 219.392L23.5606 213.604" stroke="#263238" stroke-linecap="round" stroke-linejoin="round"/>
<path d="M10.4639 204.768L16.9531 207.352L18.8061 201.364" stroke="#263238" stroke-linecap="round" stroke-linejoin="round"/>
<path d="M6.44043 192.985L12.0068 195.185L13.2914 190.01" stroke="#263238" stroke-linecap="round" stroke-linejoin="round"/>
<path d="M296.107 231.345C296.107 231.345 295.162 229.218 296.211 228.096C297.259 226.974 299.341 225.66 299.983 223.667C300.625 221.674 299.09 219.51 301.127 217.111C303.165 214.712 303.342 215.199 303.497 211.39C303.652 207.58 306.199 207.558 306.937 205.366C307.676 203.173 306.14 200.722 308.694 197.488C311.249 194.255 309.307 191.228 310.614 189.56C311.92 187.891 313.205 187.411 313.5 184.739C313.796 182.066 311.928 181.69 312.932 178.693C313.936 175.695 312.755 174.625 311.825 176.072C310.894 177.519 310.045 179.187 307.735 180.435C305.424 181.683 305.003 184.038 305.188 186.252C305.372 188.467 301.216 189.368 300.566 191.073C299.917 192.778 300.825 195.731 298.986 197.717C297.148 199.703 295.295 200.279 295.347 202.715C295.398 205.152 292.49 205.144 291.493 207.883C290.497 210.622 291.936 211.574 290.489 213.833C289.042 216.092 285.89 215.989 285.882 219.193C285.875 222.397 284.672 223.578 282.309 226.096L296.107 231.345Z" fill="#0D6073"/>
<path opacity="0.2" d="M296.107 231.345C296.107 231.345 295.162 229.218 296.211 228.096C297.259 226.974 299.341 225.66 299.983 223.667C300.625 221.674 299.09 219.51 301.127 217.111C303.165 214.712 303.342 215.199 303.497 211.39C303.652 207.58 306.199 207.558 306.937 205.366C307.676 203.173 306.14 200.722 308.694 197.488C311.249 194.255 309.307 191.228 310.614 189.56C311.92 187.891 313.205 187.411 313.5 184.739C313.796 182.066 311.928 181.69 312.932 178.693C313.936 175.695 312.755 174.625 311.825 176.072C310.894 177.519 310.045 179.187 307.735 180.435C305.424 181.683 305.003 184.038 305.188 186.252C305.372 188.467 301.216 189.368 300.566 191.073C299.917 192.778 300.825 195.731 298.986 197.717C297.148 199.703 295.295 200.279 295.347 202.715C295.398 205.152 292.49 205.144 291.493 207.883C290.497 210.622 291.936 211.574 290.489 213.833C289.042 216.092 285.89 215.989 285.882 219.193C285.875 222.397 284.672 223.578 282.309 226.096L296.107 231.345Z" fill="black"/>
<path d="M310.319 181.624L289.655 228.997" stroke="#263238" stroke-linecap="round" stroke-linejoin="round"/>
<path d="M290.762 219.215L292.084 223.298L295.908 221.991" stroke="#263238" stroke-linecap="round" stroke-linejoin="round"/>
<path d="M294.741 208.784L296.417 213.42L300.522 211.427" stroke="#263238" stroke-linecap="round" stroke-linejoin="round"/>
<path d="M298.418 199.799L300.426 204.627L304.597 202.494" stroke="#263238" stroke-linecap="round" stroke-linejoin="round"/>
<path d="M302.619 191.494L304.354 195.621L307.794 193.605" stroke="#263238" stroke-linecap="round" stroke-linejoin="round"/>
<path d="M208.935 144.069L209.577 148.498L288.695 147.856L287.957 142.792L287.219 142.615L281.763 120.947C281.763 120.947 283.055 120.873 283.055 118.843C283.055 116.813 279.851 116.975 279.851 116.975L207.643 116.444L190.818 100.741L188.035 99.8847L125.173 99.5377L121.541 100.926L48.2107 138.576C46.7285 139.679 45.7225 141.305 45.398 143.124C44.7409 146.321 43.1832 165.545 43.1832 165.545L40.2302 191.93L40.3336 194.979L45.9738 227.794L51.5107 225.778C51.5107 225.778 52.8026 203.085 64.3488 195.835C75.895 188.585 87.7144 191.804 97.0237 212.748L161.296 183.838C161.296 183.838 157.088 159.668 167.94 147.856C178.792 136.044 193.04 142.74 197.123 145.966L208.935 144.069Z" fill="#0D6073"/>
<path opacity="0.3" d="M142.825 133.276L125.173 99.5377L48.5723 138.488C48.5723 138.488 45.826 139.529 45.3018 144.733C44.7777 149.938 40.0012 192.631 40.0012 192.631L45.7743 227.919L51.5548 226.066C51.5548 226.066 53.9984 197.644 70.2104 193.14C86.4223 188.637 97.1565 213.036 97.1565 213.036L161.443 183.44C161.443 183.44 158.269 167.464 164.344 154.102C170.42 140.739 186.558 139.005 195.927 145.944L208.034 144.202L201.39 116.326L142.825 133.276Z" fill="black"/>
<path d="M271.339 151.466C271.339 151.466 282.28 151.067 289.057 164.127C294.018 173.658 294.963 186.311 290.142 196.189C284.731 207.263 270.667 212.431 259.069 209.19C244.644 205.144 239.786 184.828 241.499 171.805L271.339 151.466Z" fill="#263238" stroke="#263238" stroke-miterlimit="10"/>
<path opacity="0.3" d="M271.332 151.429C271.332 151.429 282.265 151.038 289.05 164.09C294.003 173.628 294.956 186.282 290.127 196.152C284.716 207.226 270.652 212.394 259.055 209.16C244.629 205.107 239.772 184.798 241.484 171.775L271.332 151.429Z" fill="white" stroke="#263238" stroke-miterlimit="10"/>
<path d="M172.236 179.962C172.236 179.962 181.332 179.638 187.001 190.497C191.128 198.426 191.918 208.953 187.902 217.163C183.406 226.369 171.705 230.688 162.063 227.978C150.067 224.612 146.029 207.728 147.453 196.883L172.236 179.962Z" fill="#263238"/>
<path opacity="0.3" d="M172.229 179.94C172.229 179.94 181.317 179.616 186.994 190.468C191.121 198.397 191.911 208.924 187.895 217.133C185.392 221.997 181.078 225.683 175.883 227.395C171.438 228.98 166.614 229.173 162.056 227.949C150.052 224.582 146.014 207.699 147.439 196.861L172.229 179.94Z" fill="#263238"/>
<path d="M51.614 225.933C52.116 219.208 54.9361 197.252 70.2253 193.14C88.3345 188.275 97.1714 213.036 97.1714 213.036L161.296 184.171C161.296 184.171 156.866 157.977 169.38 146.741C181.893 135.505 197.116 146.003 197.116 146.003L208.049 144.224" stroke="#263238" stroke-linecap="round" stroke-linejoin="round"/>
<path d="M198.452 208.06C190.921 207.356 183.551 206.906 176.341 206.709H176.009C171.188 201.999 167.482 194.691 166.153 186.127C163.65 170.033 170.464 155.615 181.376 153.917C192.287 152.219 203.154 163.891 205.657 179.977C207.466 191.575 204.431 202.331 198.452 208.06Z" fill="#263238"/>
<path d="M275.539 195.65C271.457 203.358 265.108 205.705 259.8 205.248C252.993 204.701 245.567 198.78 243.559 192.269C241.159 184.606 241.056 175.843 241.056 175.843L217.203 186.688C215.151 164.54 205.723 156.309 200.747 153.467C199.119 152.551 197.259 152.13 195.395 152.256C181.841 153.083 169.365 153.585 166.19 173.665C165.379 179.578 165.871 185.597 167.631 191.3C169.391 197.003 172.376 202.252 176.378 206.68C149.084 205.891 121.792 208.305 95.0598 213.87C87.6182 198.315 77.4082 192.712 68.4385 196.713C57.2171 201.719 55.5191 225.365 55.5191 225.365L51.3923 225.778C52.6917 211.205 58.103 195.281 72.9492 192.557C87.7954 189.833 97.1564 213.021 97.1564 213.021L161.443 183.425C160.011 176.493 157.966 155.084 171.35 144.63C181.915 136.384 197.101 145.959 197.101 145.959L208.263 143.463L209.577 148.454L287.226 148.085L268.29 160.857C275.473 165.936 283.579 180.457 275.539 195.65Z" fill="#263238"/>
<path d="M42.216 172.403L40.0013 192.631L44.2979 219.09C44.2979 219.09 33.3497 210.364 32.4195 196.093C31.4893 181.823 42.216 172.403 42.216 172.403Z" fill="#263238"/>
<path d="M45.9293 227.993L40.2817 192.779L45.3978 143.131C45.4991 142.154 45.8424 141.218 46.3967 140.407C46.951 139.597 47.6988 138.937 48.5723 138.488L124.538 99.5377L187.053 99.8404C188.74 99.8485 190.36 100.498 191.586 101.656L207.023 116.23" stroke="#263238" stroke-linecap="round" stroke-linejoin="round"/>
<path d="M78.0357 175.932L40.2891 192.771" stroke="#263238" stroke-linecap="round" stroke-linejoin="round"/>
<path d="M86.9168 171.96L80.6934 174.743" stroke="#263238" stroke-linecap="round" stroke-linejoin="round"/>
<path d="M101.365 165.301L95.1411 168.077" stroke="#263238" stroke-linecap="round" stroke-linejoin="round"/>
<path d="M124.634 99.5894L142.699 132.951L150.679 177.814L107.071 197.289" stroke="#263238" stroke-linecap="round" stroke-linejoin="round"/>
<path d="M86.0754 119.589L91.4647 170.055L102.568 187.906" stroke="#263238" stroke-linecap="round" stroke-linejoin="round"/>
<path d="M207.894 120.209L281.084 120.947C281.524 120.947 281.952 120.796 282.295 120.519C282.49 120.357 282.651 120.158 282.769 119.933C282.886 119.708 282.956 119.462 282.976 119.209C282.996 118.957 282.965 118.702 282.885 118.462C282.804 118.221 282.677 117.999 282.509 117.809L282.331 117.61C282.157 117.412 281.942 117.253 281.702 117.143C281.461 117.034 281.2 116.977 280.936 116.975L201.412 116.303C201.053 116.303 200.695 116.333 200.342 116.392L147.298 131.615" stroke="#263238" stroke-linecap="round" stroke-linejoin="round"/>
<path d="M208.433 143.759L209.466 148.196L288.695 147.827L287.964 142.762L208.433 143.759Z" stroke="#263238" stroke-linecap="round" stroke-linejoin="round"/>
<path d="M215.616 143.39L210.116 119.95" stroke="#263238" stroke-miterlimit="10"/>
<path d="M213.401 143.545L207.85 120.12" stroke="#263238" stroke-miterlimit="10"/>
<path d="M286.901 142.548L281.763 120.976" stroke="#263238" stroke-miterlimit="10"/>
<path d="M279.711 120.792L285.107 142.703" stroke="#263238" stroke-miterlimit="10"/>
<path opacity="0.3" d="M226.616 120.519L231.983 143.427L215.609 143.39L210.241 120.474L226.616 120.519Z" fill="black"/>
<path d="M226.416 131.282C227.302 134.848 225.9 138.259 223.286 138.908C220.673 139.558 217.845 137.188 216.967 133.623C216.088 130.057 217.484 126.646 220.097 125.997C222.71 125.347 225.538 127.731 226.416 131.282Z" fill="#263238"/>
<path opacity="0.3" d="M266.06 120.851L271.996 142.829H284.864L279.843 121.25L266.06 120.851Z" fill="black"/>
<path d="M279.12 130.921C279.859 133.962 278.677 136.871 276.448 137.425C274.218 137.978 271.804 135.948 271.051 132.914C270.298 129.88 271.502 126.964 273.724 126.41C275.946 125.856 278.367 127.879 279.12 130.921Z" fill="#263238"/>
<path opacity="0.2" d="M225.538 131.511C226.276 134.413 225.11 137.188 222.991 137.72C220.872 138.251 218.562 136.317 217.823 133.416C217.085 130.515 218.244 127.739 220.37 127.215C222.497 126.69 224.822 128.617 225.538 131.511Z" fill="white"/>
<path opacity="0.2" d="M278.581 131.053C279.238 133.689 278.197 136.221 276.271 136.694C274.344 137.166 272.247 135.417 271.59 132.781C270.933 130.145 271.974 127.613 273.908 127.148C275.842 126.683 277.932 128.418 278.581 131.053Z" fill="white"/>
<path d="M229.222 120.474L230.639 126.55L264.783 127.067L263.085 120.851H266.06L271.996 142.829L268.88 142.873L266.171 132.921L231.983 133.143L234.36 143.338L231.983 143.427L226.616 120.519L229.222 120.474Z" stroke="#263238" stroke-linecap="round" stroke-linejoin="round"/>
<path d="M82.1774 135.114L82.2512 161.226L49.1851 177.563L50.1374 149.436C50.1638 148.518 50.4342 147.624 50.9208 146.846C51.4073 146.067 52.0925 145.432 52.9058 145.006L77.4526 132.242C77.9462 131.99 78.496 131.869 79.0498 131.889C79.6035 131.91 80.1428 132.072 80.6163 132.36C81.0899 132.647 81.4819 133.052 81.7551 133.534C82.0284 134.016 82.1737 134.56 82.1774 135.114Z" fill="#263238"/>
<path d="M138.24 133.564L95.1706 154.7L91.4793 128.241C91.3298 127.172 91.5185 126.084 92.0189 125.128C92.5194 124.172 93.3065 123.397 94.2699 122.911L119.843 110.021C121.044 109.415 122.433 109.301 123.717 109.704C125 110.106 126.076 110.993 126.716 112.177L138.24 133.564Z" fill="#263238"/>
<path d="M203.893 116.296H200.94L147.284 131.762L135.036 109.689C134.771 109.218 134.611 108.695 134.568 108.157C134.525 107.618 134.599 107.077 134.786 106.57C134.973 106.063 135.267 105.602 135.65 105.22C136.032 104.839 136.493 104.545 137 104.358C137.401 104.206 137.826 104.126 138.255 104.122L188.22 103.561H188.389C189.253 103.585 190.082 103.912 190.73 104.484L203.9 116.296" fill="#263238"/>
<path d="M204.262 116.355L200.718 116.119L197.47 117.226C177.641 99.6779 155.604 106.366 155.604 106.366L159.731 114.34C148.051 104.226 136.712 106.544 134.63 107.607C134.641 106.851 134.881 106.117 135.317 105.501C135.753 104.884 136.365 104.414 137.074 104.152L188.463 103.362H189.748L190.804 104.307L204.262 116.355Z" fill="white"/>
<path opacity="0.2" d="M203.893 116.296H200.94L147.284 131.762L135.036 109.689C134.771 109.218 134.611 108.695 134.568 108.157C134.525 107.618 134.599 107.077 134.786 106.57C134.973 106.063 135.267 105.602 135.65 105.22C136.032 104.839 136.493 104.545 137 104.358C137.401 104.206 137.826 104.126 138.255 104.122L188.22 103.561H188.389C189.253 103.585 190.082 103.912 190.73 104.484L203.9 116.296" fill="white"/>
<path d="M203.893 116.296H200.94L147.284 131.762L135.036 109.689C134.771 109.218 134.611 108.695 134.568 108.157C134.525 107.618 134.599 107.077 134.786 106.57C134.973 106.063 135.267 105.602 135.65 105.22C136.032 104.839 136.493 104.545 137 104.358C137.401 104.206 137.826 104.126 138.255 104.122L188.22 103.561H188.389C189.253 103.585 190.082 103.912 190.73 104.484L203.9 116.296" stroke="#263238" stroke-linecap="round" stroke-linejoin="round"/>
<path opacity="0.33" d="M201.53 167.006L211.245 163.765C214.771 170.854 216.596 178.667 216.576 186.585L206.321 188.061C206.321 188.061 205.967 176.877 201.53 167.006Z" fill="black"/>
<path opacity="0.33" d="M274.115 167.073L287.905 162.075C287.905 162.075 296.764 174.95 292.032 190.209L276.972 192.557C276.972 192.557 282.309 179.424 274.115 167.073Z" fill="black"/>
<path opacity="0.3" d="M64.4005 130.5C64.4005 130.5 51.1859 137.882 48.2476 141.3C45.3094 144.718 42.1128 173.363 42.1128 173.363C42.1128 173.363 44.0618 142.939 46.6456 140.097C49.2295 137.255 64.4005 130.5 64.4005 130.5Z" fill="black"/>
<path opacity="0.3" d="M149.72 172.403L99.0611 195.746C99.0611 195.746 86.7766 182.967 70.011 190.01C70.011 190.01 88.5632 186.363 98.2564 201.364L150.672 177.814L149.72 172.403Z" fill="black"/>
<path opacity="0.3" d="M41.0421 188.873L99.9766 162.355L107.071 163.005L40.8059 192.225L41.0421 188.873Z" fill="black"/>
<path opacity="0.3" d="M263.085 120.851L264.783 127.067L230.639 126.55L229.222 120.474L263.085 120.851Z" fill="black"/>
<path opacity="0.3" d="M266.171 132.921L268.881 142.873L234.36 143.338L231.983 133.143L266.171 132.921Z" fill="black"/>
<path d="M189.356 211.7C189.142 211.626 189.607 205.602 189.526 205.225C188.817 201.918 188.104 198.611 187.385 195.303C186.519 191.277 185.65 187.254 184.779 183.233L182.166 171.148L179.995 161.078L178.718 155.172C178.666 154.921 178.615 154.677 178.556 154.434L196.429 151.673C196.429 151.673 211.194 153.961 215.483 175.887C217.698 187.094 216.686 194.27 215.276 198.522C214.582 200.611 213.918 202.745 212.404 204.428C208.145 209.123 202.977 210.415 195.262 211.213C193.749 211.301 190.884 211.663 189.356 211.7Z" fill="#263238" stroke="#263238" stroke-miterlimit="10"/>
<path opacity="0.3" d="M201.53 210.15C198.577 210.984 191.047 211.545 190.877 211.515L184.292 180.996C183.17 175.784 182.045 170.567 180.918 165.345C180.357 162.742 179.794 160.133 179.228 157.52C179.095 156.892 178.962 156.265 178.822 155.637C178.644 154.803 178.349 154.545 179.183 154.308C180.66 153.88 182.417 153.873 183.879 153.57L190.412 152.485C192.56 152.352 194.842 151.636 197.056 151.902C198.451 152.119 199.793 152.594 201.013 153.304C205.499 155.872 209.143 159.685 211.504 164.282C214.516 169.885 215.889 176.271 216.546 182.554C217.074 187.378 216.792 192.256 215.712 196.987C215.048 199.844 213.859 203.284 211.401 205.284C208.123 207.942 205.908 208.917 201.53 210.15Z" fill="white" stroke="#263238" stroke-miterlimit="10"/>
<path d="M198.452 208.06C193.284 213.014 182.675 213.376 176.341 206.709C176.267 206.628 167.482 194.683 166.153 186.119C163.65 170.026 170.464 155.608 181.376 153.91C192.287 152.212 203.154 163.883 205.657 179.97C207.466 191.575 204.431 202.331 198.452 208.06Z" fill="#263238" stroke="#263238" stroke-miterlimit="10"/>
<path opacity="0.1" d="M198.599 208.112C190.796 215.605 178.275 210.009 176.009 206.68C171.188 201.97 167.63 194.727 166.301 186.171C163.828 170.077 170.612 155.645 181.546 153.961C192.479 152.278 203.324 163.935 205.827 180.022C207.613 191.649 204.557 202.405 198.599 208.112Z" fill="white" stroke="#263238" stroke-miterlimit="10"/>
<path d="M191.084 196.329C190.532 196.7 189.934 196.998 189.305 197.215C183.783 199.105 177.552 193.915 175.396 185.625C173.24 177.334 175.957 169.095 181.479 167.213C182.343 166.917 183.255 166.79 184.167 166.836C188.891 167.065 193.579 171.842 195.388 178.796C197.307 186.142 195.388 193.443 191.084 196.329Z" fill="#263238" stroke="#263238" stroke-miterlimit="10"/>
<path d="M191.143 196.676C190.585 197.057 189.979 197.363 189.342 197.584C183.753 199.489 177.448 194.24 175.263 185.854C173.078 177.467 175.832 169.125 181.42 167.22C182.293 166.919 183.215 166.789 184.137 166.836C188.921 167.073 193.66 171.901 195.499 178.944C197.448 186.37 195.513 193.768 191.143 196.676Z" fill="#263238" stroke="#263238" stroke-miterlimit="10"/>
<path opacity="0.3" d="M191.224 196.699C190.665 197.074 190.059 197.377 189.423 197.599C183.834 199.511 177.53 194.262 175.344 185.868C173.159 177.475 175.92 169.147 181.501 167.235C182.377 166.936 183.302 166.809 184.226 166.859C189.009 167.087 193.742 171.916 195.58 178.958C197.521 186.385 195.572 193.783 191.224 196.699Z" fill="white" stroke="#263238" stroke-miterlimit="10"/>
<path d="M191.084 196.492C186.352 196.27 181.664 191.494 179.848 184.532C177.928 177.194 179.848 169.878 184.167 167.006C188.891 167.235 193.572 172.004 195.388 178.966C197.3 186.304 195.388 193.613 191.084 196.492Z" fill="#263238"/>
<path d="M188.385 192.135C191.736 191.353 193.433 186.351 192.175 180.963C190.917 175.575 187.181 171.841 183.83 172.624C180.479 173.406 178.782 178.408 180.04 183.796C181.298 189.184 185.034 192.917 188.385 192.135Z" fill="#263238" stroke="#263238" stroke-miterlimit="10"/>
<path opacity="0.4" d="M188.385 192.135C191.736 191.353 193.433 186.351 192.175 180.963C190.917 175.575 187.181 171.841 183.83 172.624C180.479 173.406 178.782 178.408 180.04 183.796C181.298 189.184 185.034 192.917 188.385 192.135Z" fill="white"/>
<path d="M85.9941 249.21C87.7201 248.871 89.395 248.31 90.9773 247.542C98.0424 243.954 104.266 239.812 106.687 231.559C108.592 224.981 107.603 216.727 105.831 210.253L96.9719 213.479L94.0189 209.611C94.0189 209.611 101.424 239.451 85.9941 249.21Z" fill="#263238"/>
<path d="M95.9828 213.966C95.9828 213.966 85.2265 191.575 70.3434 195.65C55.4603 199.725 55.3569 224.051 55.3569 224.051C55.3569 224.051 58.0442 253.153 80.6936 250.628C99.2532 248.575 97.474 223.6 95.9828 213.966Z" fill="#263238"/>
<path opacity="0.1" d="M90.8665 205.587C87.5222 200.478 82.7457 196.507 76.4559 195.377C74.4238 195.011 72.3357 195.101 70.3432 195.643C62.9607 197.658 58.0882 204.997 56.1983 211.833C53.7473 220.692 56.1171 232.504 61.2627 240.403C65.7586 247.306 72.3364 251.639 80.6934 250.635C95.3034 248.871 98.7436 231.847 96.2483 219.178C95.3337 214.347 93.5072 209.735 90.8665 205.587Z" fill="white" stroke="#263238" stroke-miterlimit="10"/>
<path d="M81.7565 236.889C81.2051 237.261 80.6068 237.559 79.9774 237.775C74.4553 239.665 68.2244 234.475 66.0688 226.184C63.9131 217.894 66.6298 209.655 72.1519 207.772C73.0148 207.474 73.9275 207.346 74.8392 207.396C79.5713 207.625 84.2518 212.394 86.0679 219.355C87.98 226.694 86.0605 234.002 81.7565 236.889Z" fill="#263238" stroke="#263238" stroke-miterlimit="10"/>
<path d="M81.8304 237.236C81.2739 237.617 80.6679 237.92 80.0291 238.136C74.4406 240.049 68.1359 234.8 65.9507 226.413C63.7655 218.027 66.5265 209.684 72.1077 207.78C72.9819 207.475 73.9074 207.345 74.8318 207.396C79.6157 207.632 84.3552 212.46 86.1861 219.496C88.1277 226.93 86.1861 234.32 81.8304 237.236Z" fill="#263238" stroke="#263238" stroke-miterlimit="10"/>
<path opacity="0.3" d="M81.8822 237.258C81.3234 237.635 80.7179 237.938 80.0809 238.159C74.4923 240.063 68.1877 234.814 66.0024 226.428C63.8172 218.041 66.5783 209.707 72.1594 207.795C73.0342 207.492 73.9597 207.364 74.8836 207.418C79.6674 207.647 84.407 212.475 86.2378 219.518C88.1942 226.945 86.2526 234.342 81.8822 237.258Z" fill="white" stroke="#263238" stroke-miterlimit="10"/>
<path d="M81.5202 237.273C76.2787 237.051 70.7566 232.105 68.7559 225.129C66.6519 217.79 68.8002 210.474 73.5841 207.588C80.1249 207.588 84.0008 212.571 85.994 219.525C88.098 226.856 86.3115 234.379 81.5202 237.273Z" fill="#263238"/>
<path d="M84.2519 221.245C85.5143 226.635 83.8163 231.64 80.4646 232.422C77.113 233.205 73.3774 229.469 72.1224 224.08C70.8674 218.691 72.558 213.686 75.9096 212.903C79.2613 212.121 82.9968 215.856 84.2519 221.245Z" fill="#263238" stroke="#263238" stroke-miterlimit="10"/>
<path opacity="0.4" d="M78.9252 231.688C82.2763 230.905 83.9733 225.903 82.7155 220.515C81.4577 215.127 77.7215 211.394 74.3704 212.176C71.0193 212.958 69.3224 217.96 70.5801 223.348C71.8379 228.736 75.5742 232.47 78.9252 231.688Z" fill="white"/>
<path d="M267.249 180.797C268.644 188.711 265.588 195.864 260.413 196.78C255.238 197.695 249.922 192.018 248.52 184.104C247.117 176.19 250.188 169.044 255.356 168.128C260.524 167.213 265.854 172.89 267.249 180.797Z" fill="#263238" stroke="#263238" stroke-miterlimit="10"/>
<path d="M323.555 243.26C278.766 223.785 237.136 212.608 201.626 208.799C200.853 208.715 200.078 208.641 199.3 208.577C191.77 207.873 184.4 207.423 177.19 207.226H176.858C149.687 206.459 122.52 208.867 95.9087 214.402C91.5973 215.303 87.4287 216.25 83.4028 217.244C77.2089 218.772 71.3693 220.396 65.9137 222.058C61.1396 223.534 56.6634 225.011 52.4849 226.487C50.5162 227.176 48.6263 227.86 46.8152 228.539C25.8858 236.343 14.1255 243.304 14.1255 243.304C90.0175 289.031 240.768 263.916 300.027 250.761C315.73 247.224 323.555 243.26 323.555 243.26Z" fill="white"/>
<path d="M126.849 209.271C126.657 215.517 134.32 218.625 136.771 218.868C151.336 220.301 166.958 217.451 179.966 224.162C184.506 226.502 188.411 229.89 192.671 232.718C199.743 237.413 207.739 240.536 215.771 243.282C229.399 247.941 243.699 251.661 258.05 250.51C272.402 249.358 286.569 243.172 294.04 230.865C294.04 230.865 203.464 193.975 126.849 209.271Z" fill="#263238"/>
<path d="M322.906 243.231C279.556 222.648 238.391 212.49 200.976 208.754L198.651 208.533C191.121 207.834 183.751 207.384 176.54 207.182H176.208C149.025 206.419 121.845 208.835 95.2222 214.38C90.9108 215.28 86.7422 216.228 82.7163 217.222C76.5223 218.75 70.6828 220.374 65.2271 222.035C60.4531 223.512 55.9769 224.988 51.7984 226.465C49.8297 227.149 47.9398 227.833 46.1286 228.517C25.1993 236.321 13.439 243.282 13.439 243.282" stroke="#263238" stroke-linecap="round" stroke-linejoin="round"/>
</svg>
