<svg width="393" height="219" viewBox="0 0 393 219" fill="none" xmlns="http://www.w3.org/2000/svg">
<path d="M17.7006 43.898H48.7275V79.0799H56.7078V59.1609H96.159V90.7008H101.379V16.6893H135.664V37.0062H153.239V62.2762H158.561V46.3858H189.726V93.8217H198.846V55.2555H227.353V25.9681H246.734V9.28204H269.156V83.271H276.692V52.3979H313.624V96.5896H318.736V60.5168H356.189V28.0188H375.299V152.867H17.7006V43.898Z" fill="#EBEBEB"/>
<path d="M26.7549 48.3245H21.5048V55.0482H26.7549V48.3245Z" fill="white"/>
<path d="M35.8571 48.3245H30.6069V55.0482H35.8571V48.3245Z" fill="white"/>
<path d="M44.9534 48.3245H39.7032V55.0482H44.9534V48.3245Z" fill="white"/>
<path d="M26.7549 58.4437H21.5048V65.1674H26.7549V58.4437Z" fill="white"/>
<path d="M35.8571 58.4437H30.6069V65.1674H35.8571V58.4437Z" fill="white"/>
<path d="M44.9534 58.4437H39.7032V65.1674H44.9534V58.4437Z" fill="white"/>
<path d="M26.7549 68.5629H21.5048V75.2866H26.7549V68.5629Z" fill="white"/>
<path d="M35.8571 68.5629H30.6069V75.2866H35.8571V68.5629Z" fill="white"/>
<path d="M44.9534 68.5629H39.7032V75.2866H44.9534V68.5629Z" fill="white"/>
<path d="M26.7549 78.6821H21.5048V85.4058H26.7549V78.6821Z" fill="white"/>
<path d="M35.8571 78.6821H30.6069V85.4058H35.8571V78.6821Z" fill="white"/>
<path d="M44.9534 78.6821H39.7032V85.4058H44.9534V78.6821Z" fill="white"/>
<path d="M208.476 60.063H203.226V65.6717H208.476V60.063Z" fill="white"/>
<path d="M217.573 60.063H212.323V65.6717H217.573V60.063Z" fill="white"/>
<path d="M226.669 60.063H221.419V65.6717H226.669V60.063Z" fill="white"/>
<path d="M208.476 68.5069H203.226V74.1156H208.476V68.5069Z" fill="white"/>
<path d="M217.573 68.5069H212.323V74.1156H217.573V68.5069Z" fill="white"/>
<path d="M226.669 68.5069H221.419V74.1156H226.669V68.5069Z" fill="white"/>
<path d="M208.476 76.9507H203.226V82.5594H208.476V76.9507Z" fill="white"/>
<path d="M217.573 76.9507H212.323V82.5594H217.573V76.9507Z" fill="white"/>
<path d="M226.669 76.9507H221.419V82.5594H226.669V76.9507Z" fill="white"/>
<path d="M208.476 85.389H203.226V90.9977H208.476V85.389Z" fill="white"/>
<path d="M217.573 85.389H212.323V90.9977H217.573V85.389Z" fill="white"/>
<path d="M226.669 85.389H221.419V90.9977H226.669V85.389Z" fill="white"/>
<path d="M208.476 94.0458H203.226V99.6546H208.476V94.0458Z" fill="white"/>
<path d="M217.573 94.0458H212.323V99.6546H217.573V94.0458Z" fill="white"/>
<path d="M226.669 94.0458H221.419V99.6546H226.669V94.0458Z" fill="white"/>
<path d="M208.476 102.697H203.226V108.306H208.476V102.697Z" fill="white"/>
<path d="M217.573 102.697H212.323V108.306H217.573V102.697Z" fill="white"/>
<path d="M226.669 102.697H221.419V108.306H226.669V102.697Z" fill="white"/>
<path d="M208.476 111.348H203.226V116.957H208.476V111.348Z" fill="white"/>
<path d="M217.573 111.348H212.323V116.957H217.573V111.348Z" fill="white"/>
<path d="M226.669 111.348H221.419V116.957H226.669V111.348Z" fill="white"/>
<path d="M208.476 119.999H203.226V125.608H208.476V119.999Z" fill="white"/>
<path d="M217.573 119.999H212.323V125.608H217.573V119.999Z" fill="white"/>
<path d="M226.669 119.999H221.419V125.608H226.669V119.999Z" fill="white"/>
<path d="M91.4069 63.4753H61.1899V67.6832H91.4069V63.4753Z" fill="white"/>
<path d="M91.4069 71.639H61.1899V75.8469H91.4069V71.639Z" fill="white"/>
<path d="M91.4069 79.8027H61.1899V84.0107H91.4069V79.8027Z" fill="white"/>
<path d="M91.4069 87.9608H61.1899V92.1688H91.4069V87.9608Z" fill="white"/>
<path d="M91.4069 96.1246H61.1899V100.333H91.4069V96.1246Z" fill="white"/>
<path d="M91.4069 104.288H61.1899V108.496H91.4069V104.288Z" fill="white"/>
<path d="M91.4069 112.452H61.1899V116.66H91.4069V112.452Z" fill="white"/>
<path d="M91.4069 120.61H61.1899V124.818H91.4069V120.61Z" fill="white"/>
<path d="M308.937 56.3201H281.156V60.5281H308.937V56.3201Z" fill="white"/>
<path d="M308.937 64.4839H281.156V68.6918H308.937V64.4839Z" fill="white"/>
<path d="M308.937 72.642H281.156V76.8499H308.937V72.642Z" fill="white"/>
<path d="M308.937 80.8057H281.156V85.0136H308.937V80.8057Z" fill="white"/>
<path d="M308.937 88.9694H281.156V93.1774H308.937V88.9694Z" fill="white"/>
<path d="M308.937 97.1275H281.156V101.335H308.937V97.1275Z" fill="white"/>
<path d="M308.937 105.291H281.156V109.499H308.937V105.291Z" fill="white"/>
<path d="M308.937 113.455H281.156V117.663H308.937V113.455Z" fill="white"/>
<path d="M308.937 121.21H281.156V125.418H308.937V121.21Z" fill="white"/>
<path d="M308.937 128.964H281.156V133.172H308.937V128.964Z" fill="white"/>
<path d="M308.937 136.719H281.156V140.927H308.937V136.719Z" fill="white"/>
<path d="M308.937 144.479H281.156V148.687H308.937V144.479Z" fill="white"/>
<path d="M353.861 66.176H324.514V70.3839H353.861V66.176Z" fill="white"/>
<path d="M353.861 74.3397H324.514V78.5476H353.861V74.3397Z" fill="white"/>
<path d="M353.861 82.5034H324.514V86.7113H353.861V82.5034Z" fill="white"/>
<path d="M353.861 90.6671H324.514V94.8751H353.861V90.6671Z" fill="white"/>
<path d="M353.861 98.8253H324.514V103.033H353.861V98.8253Z" fill="white"/>
<path d="M353.861 106.989H324.514V111.197H353.861V106.989Z" fill="white"/>
<path d="M353.861 115.153H324.514V119.361H353.861V115.153Z" fill="white"/>
<path d="M353.861 123.311H324.514V127.519H353.861V123.311Z" fill="white"/>
<path d="M353.861 130.617H324.514V134.825H353.861V130.617Z" fill="white"/>
<path d="M353.861 137.924H324.514V142.132H353.861V137.924Z" fill="white"/>
<path d="M353.861 145.23H324.514V149.438H353.861V145.23Z" fill="white"/>
<path d="M177.011 50.1903H167.681V54.2526H177.011V50.1903Z" fill="white"/>
<path d="M177.011 58.0739H167.681V62.1361H177.011V58.0739Z" fill="white"/>
<path d="M177.011 65.9575H167.681V70.0197H177.011V65.9575Z" fill="white"/>
<path d="M177.011 73.841H167.681V77.9033H177.011V73.841Z" fill="white"/>
<path d="M177.011 81.719H167.681V85.7812H177.011V81.719Z" fill="white"/>
<path d="M177.011 89.6026H167.681V93.6648H177.011V89.6026Z" fill="white"/>
<path d="M177.011 97.4861H167.681V101.548H177.011V97.4861Z" fill="white"/>
<path d="M177.011 105.37H167.681V109.432H177.011V105.37Z" fill="white"/>
<path d="M189.708 50.1903H180.377V54.2526H189.708V50.1903Z" fill="white"/>
<path d="M189.708 58.0739H180.377V62.1361H189.708V58.0739Z" fill="white"/>
<path d="M189.708 65.9575H180.377V70.0197H189.708V65.9575Z" fill="white"/>
<path d="M189.708 73.841H180.377V77.9033H189.708V73.841Z" fill="white"/>
<path d="M189.708 81.719H180.377V85.7812H189.708V81.719Z" fill="white"/>
<path d="M189.708 89.6026H180.377V93.6648H189.708V89.6026Z" fill="white"/>
<path d="M189.708 97.4861H180.377V101.548H189.708V97.4861Z" fill="white"/>
<path d="M189.708 105.37H180.377V109.432H189.708V105.37Z" fill="white"/>
<path d="M116.302 20.9478H106.581V27.3521H116.302V20.9478Z" fill="white"/>
<path d="M130.792 20.9478H121.072V27.3521H130.792V20.9478Z" fill="white"/>
<path d="M116.302 30.361H106.581V36.7653H116.302V30.361Z" fill="white"/>
<path d="M130.792 30.361H121.072V36.7653H130.792V30.361Z" fill="white"/>
<path d="M116.302 39.7686H106.581V46.1729H116.302V39.7686Z" fill="white"/>
<path d="M130.792 39.7686H121.072V46.1729H130.792V39.7686Z" fill="white"/>
<path d="M116.302 49.1818H106.581V55.5861H116.302V49.1818Z" fill="white"/>
<path d="M130.792 49.1818H121.072V55.5861H130.792V49.1818Z" fill="white"/>
<path d="M116.302 58.595H106.581V64.9993H116.302V58.595Z" fill="white"/>
<path d="M130.792 58.595H121.072V64.9993H130.792V58.595Z" fill="white"/>
<path d="M116.302 68.0026H106.581V74.4069H116.302V68.0026Z" fill="white"/>
<path d="M130.792 68.0026H121.072V74.4069H130.792V68.0026Z" fill="white"/>
<path d="M116.302 77.4158H106.581V83.8202H116.302V77.4158Z" fill="white"/>
<path d="M130.792 77.4158H121.072V83.8202H130.792V77.4158Z" fill="white"/>
<path d="M116.302 86.8234H106.581V93.2278H116.302V86.8234Z" fill="white"/>
<path d="M130.792 86.8234H121.072V93.2278H130.792V86.8234Z" fill="white"/>
<path d="M148.757 39.7686H139.036V46.1729H148.757V39.7686Z" fill="white"/>
<path d="M148.757 49.1818H139.036V55.5861H148.757V49.1818Z" fill="white"/>
<path d="M148.757 58.595H139.036V64.9993H148.757V58.595Z" fill="white"/>
<path d="M148.757 68.0026H139.036V74.4069H148.757V68.0026Z" fill="white"/>
<path d="M148.757 77.4158H139.036V83.8202H148.757V77.4158Z" fill="white"/>
<path d="M148.757 86.8234H139.036V93.2278H148.757V86.8234Z" fill="white"/>
<path d="M116.302 96.1246H106.581V102.529H116.302V96.1246Z" fill="white"/>
<path d="M130.792 96.1246H121.072V102.529H130.792V96.1246Z" fill="white"/>
<path d="M148.757 96.1246H139.036V102.529H148.757V96.1246Z" fill="white"/>
<path d="M116.302 105.426H106.581V111.83H116.302V105.426Z" fill="white"/>
<path d="M130.792 105.426H121.072V111.83H130.792V105.426Z" fill="white"/>
<path d="M148.757 105.426H139.036V111.83H148.757V105.426Z" fill="white"/>
<path d="M116.302 114.721H106.581V121.126H116.302V114.721Z" fill="white"/>
<path d="M130.792 114.721H121.072V121.126H130.792V114.721Z" fill="white"/>
<path d="M148.757 114.721H139.036V121.126H148.757V114.721Z" fill="white"/>
<path d="M116.302 124.022H106.581V130.427H116.302V124.022Z" fill="white"/>
<path d="M130.792 124.022H121.072V130.427H130.792V124.022Z" fill="white"/>
<path d="M148.757 124.022H139.036V130.427H148.757V124.022Z" fill="white"/>
<path d="M116.302 133.318H106.581V139.722H116.302V133.318Z" fill="white"/>
<path d="M130.792 133.318H121.072V139.722H130.792V133.318Z" fill="white"/>
<path d="M148.757 133.318H139.036V139.722H148.757V133.318Z" fill="white"/>
<path d="M236.563 30.092H231.313V35.7007H236.563V30.092Z" fill="white"/>
<path d="M245.66 30.092H240.409V35.7007H245.66V30.092Z" fill="white"/>
<path d="M236.563 38.5359H231.313V44.1446H236.563V38.5359Z" fill="white"/>
<path d="M245.66 38.5359H240.409V44.1446H245.66V38.5359Z" fill="white"/>
<path d="M236.563 46.9797H231.313V52.5884H236.563V46.9797Z" fill="white"/>
<path d="M245.66 46.9797H240.409V52.5884H245.66V46.9797Z" fill="white"/>
<path d="M236.563 55.4236H231.313V61.0324H236.563V55.4236Z" fill="white"/>
<path d="M245.66 55.4236H240.409V61.0324H245.66V55.4236Z" fill="white"/>
<path d="M236.563 64.0748H231.313V69.6835H236.563V64.0748Z" fill="white"/>
<path d="M245.66 64.0748H240.409V69.6835H245.66V64.0748Z" fill="white"/>
<path d="M236.563 72.726H231.313V78.3347H236.563V72.726Z" fill="white"/>
<path d="M245.66 72.726H240.409V78.3347H245.66V72.726Z" fill="white"/>
<path d="M236.563 81.3772H231.313V86.9859H236.563V81.3772Z" fill="white"/>
<path d="M245.66 81.3772H240.409V86.9859H245.66V81.3772Z" fill="white"/>
<path d="M236.563 90.0284H231.313V95.6371H236.563V90.0284Z" fill="white"/>
<path d="M245.66 90.0284H240.409V95.6371H245.66V90.0284Z" fill="white"/>
<path d="M236.563 98.7748H231.313V104.384H236.563V98.7748Z" fill="white"/>
<path d="M245.66 98.7748H240.409V104.384H245.66V98.7748Z" fill="white"/>
<path d="M236.563 107.521H231.313V113.13H236.563V107.521Z" fill="white"/>
<path d="M245.66 107.521H240.409V113.13H245.66V107.521Z" fill="white"/>
<path d="M236.563 116.262H231.313V121.871H236.563V116.262Z" fill="white"/>
<path d="M245.66 116.262H240.409V121.871H245.66V116.262Z" fill="white"/>
<path d="M236.563 125.009H231.313V130.617H236.563V125.009Z" fill="white"/>
<path d="M245.66 125.009H240.409V130.617H245.66V125.009Z" fill="white"/>
<path d="M364.727 31.0053H359.477V37.617H364.727V31.0053Z" fill="white"/>
<path d="M373.823 31.0053H368.573V37.617H373.823V31.0053Z" fill="white"/>
<path d="M364.727 40.9508H359.477V47.5625H364.727V40.9508Z" fill="white"/>
<path d="M373.823 40.9508H368.573V47.5625H373.823V40.9508Z" fill="white"/>
<path d="M364.727 50.9019H359.477V57.5136H364.727V50.9019Z" fill="white"/>
<path d="M373.823 50.9019H368.573V57.5136H373.823V50.9019Z" fill="white"/>
<path d="M364.727 60.8474H359.477V67.4591H364.727V60.8474Z" fill="white"/>
<path d="M373.823 60.8474H368.573V67.4591H373.823V60.8474Z" fill="white"/>
<path d="M364.727 71.0395H359.477V77.6512H364.727V71.0395Z" fill="white"/>
<path d="M373.823 71.0395H368.573V77.6512H373.823V71.0395Z" fill="white"/>
<path d="M364.727 81.2315H359.477V87.8432H364.727V81.2315Z" fill="white"/>
<path d="M373.823 81.2315H368.573V87.8432H373.823V81.2315Z" fill="white"/>
<path d="M364.727 91.4236H359.477V98.0352H364.727V91.4236Z" fill="white"/>
<path d="M373.823 91.4236H368.573V98.0352H373.823V91.4236Z" fill="white"/>
<path d="M364.727 101.621H359.477V108.233H364.727V101.621Z" fill="white"/>
<path d="M373.823 101.621H368.573V108.233H373.823V101.621Z" fill="white"/>
<path d="M364.727 111.92H359.477V118.531H364.727V111.92Z" fill="white"/>
<path d="M373.823 111.92H368.573V118.531H373.823V111.92Z" fill="white"/>
<path d="M364.727 122.224H359.477V128.836H364.727V122.224Z" fill="white"/>
<path d="M373.823 122.224H368.573V128.836H373.823V122.224Z" fill="white"/>
<path d="M364.727 132.522H359.477V139.134H364.727V132.522Z" fill="white"/>
<path d="M373.823 132.522H368.573V139.134H373.823V132.522Z" fill="white"/>
<path d="M364.727 142.826H359.477V149.438H364.727V142.826Z" fill="white"/>
<path d="M373.823 142.826H368.573V149.438H373.823V142.826Z" fill="white"/>
<path d="M256.016 30.092H250.766V35.7007H256.016V30.092Z" fill="white"/>
<path d="M265.112 30.092H259.862V35.7007H265.112V30.092Z" fill="white"/>
<path d="M256.016 21.4352H250.766V27.0439H256.016V21.4352Z" fill="white"/>
<path d="M265.112 21.4352H259.862V27.0439H265.112V21.4352Z" fill="white"/>
<path d="M256.016 12.7784H250.766V18.3871H256.016V12.7784Z" fill="white"/>
<path d="M265.112 12.7784H259.862V18.3871H265.112V12.7784Z" fill="white"/>
<path d="M256.016 38.5359H250.766V44.1446H256.016V38.5359Z" fill="white"/>
<path d="M265.112 38.5359H259.862V44.1446H265.112V38.5359Z" fill="white"/>
<path d="M256.016 46.9797H250.766V52.5884H256.016V46.9797Z" fill="white"/>
<path d="M265.112 46.9797H259.862V52.5884H265.112V46.9797Z" fill="white"/>
<path d="M256.016 55.4236H250.766V61.0324H256.016V55.4236Z" fill="white"/>
<path d="M265.112 55.4236H259.862V61.0324H265.112V55.4236Z" fill="white"/>
<path d="M256.016 64.0748H250.766V69.6835H256.016V64.0748Z" fill="white"/>
<path d="M265.112 64.0748H259.862V69.6835H265.112V64.0748Z" fill="white"/>
<path d="M256.016 72.726H250.766V78.3347H256.016V72.726Z" fill="white"/>
<path d="M265.112 72.726H259.862V78.3347H265.112V72.726Z" fill="white"/>
<path d="M256.016 81.3772H250.766V86.9859H256.016V81.3772Z" fill="white"/>
<path d="M265.112 81.3772H259.862V86.9859H265.112V81.3772Z" fill="white"/>
<path d="M256.016 90.0284H250.766V95.6371H256.016V90.0284Z" fill="white"/>
<path d="M265.112 90.0284H259.862V95.6371H265.112V90.0284Z" fill="white"/>
<path d="M256.016 98.7748H250.766V104.384H256.016V98.7748Z" fill="white"/>
<path d="M265.112 98.7748H259.862V104.384H265.112V98.7748Z" fill="white"/>
<path d="M256.016 107.521H250.766V113.13H256.016V107.521Z" fill="white"/>
<path d="M265.112 107.521H259.862V113.13H265.112V107.521Z" fill="white"/>
<path d="M256.016 116.262H250.766V121.871H256.016V116.262Z" fill="white"/>
<path d="M265.112 116.262H259.862V121.871H265.112V116.262Z" fill="white"/>
<path d="M256.016 125.009H250.766V130.617H256.016V125.009Z" fill="white"/>
<path d="M265.112 125.009H259.862V130.617H265.112V125.009Z" fill="white"/>
<path d="M81.7645 37.9923L29.2029 37.9195C29.2029 37.9195 31.819 34.7425 34.699 34.3503C34.699 34.3503 40.3272 18.7793 49.6995 18.6616C58.4238 18.572 61.9039 28.2598 61.9039 28.2598C61.9039 28.2598 65.954 23.9229 69.8121 25.9177C73.6702 27.9124 75.8423 33.5995 75.8423 33.5995C75.8423 33.5995 80.1984 35.8071 81.7645 37.9923Z" fill="#EBEBEB"/>
<path d="M306.351 19.9111L372.827 20.0064C372.827 20.0064 372.827 16.0394 363.677 15.2494C363.677 15.2494 355.343 -2.12027 342.574 0.216227C334.624 1.62821 330.544 11.8147 330.544 11.8147C330.544 11.8147 324.544 3.78541 319.744 5.33187C314.944 6.87832 312.063 15.4175 312.063 15.4175C312.063 15.4175 307.107 17.6699 306.351 19.9111Z" fill="#EBEBEB"/>
<path d="M145.078 17.7539L190.284 17.8155C190.284 17.8155 186.024 14.1007 184.128 14.1007C182.232 14.1007 176.699 1.64498 169.643 2.16047C162.587 2.67595 158.807 11.9435 158.807 11.9435C158.807 11.9435 150.221 9.41649 145.078 17.7539Z" fill="#EBEBEB"/>
<path d="M271.352 42.4692L310.006 42.5253C310.006 42.5253 308.086 40.1832 305.967 39.8918C305.967 39.8918 301.869 28.4279 294.969 28.3382C288.555 28.2542 285.969 35.3701 285.969 35.3701C285.969 35.3701 283.005 32.1707 280.167 33.6275C277.329 35.0843 275.703 39.2643 275.703 39.2643C275.703 39.2643 272.51 40.8667 271.352 42.4692Z" fill="#EBEBEB"/>
<path d="M194.1 199.239C285.177 199.239 359.009 193.411 359.009 186.223C359.009 179.034 285.177 173.206 194.1 173.206C103.023 173.206 29.1909 179.034 29.1909 186.223C29.1909 193.411 103.023 199.239 194.1 199.239Z" fill="#EBEBEB"/>
<path d="M259.4 218.255C304.551 218.255 341.152 213.682 341.152 208.041C341.152 202.4 304.551 197.827 259.4 197.827C214.249 197.827 177.647 202.4 177.647 208.041C177.647 213.682 214.249 218.255 259.4 218.255Z" fill="#EBEBEB"/>
<path d="M0 155.445L49.1235 155.31L98.247 155.26L196.5 155.164L294.753 155.26L343.876 155.31L393 155.445L343.876 155.585L294.753 155.635L196.5 155.725L98.247 155.635L49.1235 155.585L0 155.445Z" fill="#263238"/>
<path d="M393 149.522H0V155.45H393V149.522Z" fill="#C7C7C7"/>
<path d="M20.2207 149.522C20.6207 151.479 20.6207 153.488 20.2207 155.445C20.005 154.472 19.9044 153.48 19.9206 152.486C19.9071 151.491 20.0077 150.497 20.2207 149.522Z" fill="#263238"/>
<path d="M43.7233 149.522C43.9363 150.497 44.0368 151.491 44.0233 152.486C44.0396 153.48 43.939 154.472 43.7233 155.445C43.5106 154.471 43.41 153.48 43.4233 152.486C43.4127 151.491 43.5132 150.498 43.7233 149.522Z" fill="#263238"/>
<path d="M67.2262 149.522C67.6262 151.479 67.6262 153.488 67.2262 155.445C66.8261 153.488 66.8261 151.479 67.2262 149.522Z" fill="#263238"/>
<path d="M90.7347 149.522C91.1267 151.479 91.1267 153.487 90.7347 155.445C90.3347 153.488 90.3347 151.479 90.7347 149.522Z" fill="#263238"/>
<path d="M114.238 149.522C114.638 151.479 114.638 153.488 114.238 155.445C113.837 153.488 113.837 151.479 114.238 149.522Z" fill="#263238"/>
<path d="M137.74 149.522C137.95 150.498 138.051 151.491 138.04 152.486C138.053 153.48 137.953 154.471 137.74 155.445C137.525 154.472 137.424 153.48 137.44 152.486C137.43 151.491 137.53 150.498 137.74 149.522Z" fill="#263238"/>
<path d="M161.243 149.522C161.456 150.497 161.556 151.491 161.543 152.486C161.559 153.48 161.459 154.472 161.243 155.445C160.843 153.488 160.843 151.479 161.243 149.522Z" fill="#263238"/>
<path d="M184.746 149.522C185.146 151.479 185.146 153.488 184.746 155.445C184.346 153.488 184.346 151.479 184.746 149.522Z" fill="#263238"/>
<path d="M208.254 149.522C208.654 151.479 208.654 153.488 208.254 155.445C207.854 153.488 207.854 151.479 208.254 149.522Z" fill="#263238"/>
<path d="M231.757 149.522C232.157 151.479 232.157 153.488 231.757 155.445C231.541 154.472 231.441 153.48 231.457 152.486C231.443 151.491 231.544 150.497 231.757 149.522Z" fill="#263238"/>
<path d="M255.26 149.522C255.47 150.498 255.57 151.491 255.56 152.486C255.576 153.48 255.475 154.472 255.26 155.445C255.047 154.471 254.946 153.48 254.96 152.486C254.949 151.491 255.05 150.498 255.26 149.522Z" fill="#263238"/>
<path d="M278.762 149.522C279.162 151.479 279.162 153.488 278.762 155.445C278.362 153.488 278.362 151.479 278.762 149.522Z" fill="#263238"/>
<path d="M302.271 149.522C302.663 151.479 302.663 153.487 302.271 155.445C301.871 153.488 301.871 151.479 302.271 149.522Z" fill="#263238"/>
<path d="M325.774 149.522C326.174 151.479 326.174 153.488 325.774 155.445C325.374 153.488 325.374 151.479 325.774 149.522Z" fill="#263238"/>
<path d="M349.277 149.522C349.487 150.498 349.587 151.491 349.577 152.486C349.59 153.48 349.489 154.471 349.277 155.445C349.061 154.472 348.96 153.48 348.977 152.486C348.963 151.491 349.064 150.497 349.277 149.522Z" fill="#263238"/>
<path d="M372.78 149.522C372.992 150.497 373.093 151.491 373.08 152.486C373.096 153.48 372.995 154.472 372.78 155.445C372.379 153.488 372.379 151.479 372.78 149.522Z" fill="#263238"/>
<path d="M376.992 140.339H374.279L374.969 86.2799L375.029 81.775H376.241L376.301 86.2799L376.992 140.339Z" fill="#0D6073"/>
<path d="M376.302 86.2799H374.97L375.03 81.775H376.242L376.302 86.2799Z" fill="#263238"/>
<path d="M368.873 65.3803L369.935 83.0245L371.183 83.2094L372.317 83.3775V64.327L369.905 65.0666L368.873 65.3803Z" fill="#0D6073"/>
<path d="M370.049 67.4423C370.049 67.4423 365.447 67.4815 365.543 67.7224C365.639 67.9634 367.487 68.4453 367.655 68.5573C367.823 68.6694 369.575 71.8015 370.055 71.8015C370.535 71.8015 370.049 67.4423 370.049 67.4423Z" fill="#0D6073"/>
<path d="M370.385 72.4347C370.385 72.4347 365.789 72.4795 365.879 72.7204C365.969 72.9614 367.829 73.4432 367.991 73.5553C368.153 73.6673 369.917 76.7939 370.391 76.7939C370.865 76.7939 370.385 72.4347 370.385 72.4347Z" fill="#0D6073"/>
<path d="M370.727 77.4326C370.727 77.4326 366.125 77.4774 366.221 77.7184C366.317 77.9593 368.165 78.4412 368.333 78.5476C368.501 78.6541 370.253 81.7918 370.733 81.7918C371.213 81.7918 370.727 77.4326 370.727 77.4326Z" fill="#0D6073"/>
<path opacity="0.1" d="M369.905 65.0666L371.183 83.2094L372.317 83.3775V64.327L369.905 65.0666Z" fill="black"/>
<path d="M382.398 65.3803L381.336 83.0245L380.088 83.2094L378.954 83.3775V64.327L381.366 65.0666L382.398 65.3803Z" fill="#0D6073"/>
<path d="M381.228 67.4423C381.228 67.4423 385.824 67.4815 385.728 67.7224C385.632 67.9634 383.784 68.4453 383.616 68.5573C383.448 68.6694 381.696 71.8015 381.216 71.8015C380.736 71.8015 381.228 67.4423 381.228 67.4423Z" fill="#0D6073"/>
<path d="M380.886 72.4347C380.886 72.4347 385.488 72.4795 385.392 72.7204C385.296 72.9614 383.442 73.4432 383.28 73.5553C383.118 73.6673 381.354 76.7939 380.88 76.7939C380.406 76.7939 380.886 72.4347 380.886 72.4347Z" fill="#0D6073"/>
<path d="M380.55 77.4326C380.55 77.4326 385.146 77.4774 385.05 77.7184C384.954 77.9593 383.106 78.4412 382.938 78.5476C382.77 78.6541 381.018 81.7918 380.538 81.7918C380.058 81.7918 380.55 77.4326 380.55 77.4326Z" fill="#0D6073"/>
<path opacity="0.1" d="M381.366 65.0666L380.088 83.2094L378.954 83.3775V64.327L381.366 65.0666Z" fill="black"/>
<path d="M379.956 62.8926L379.578 83.809H371.693L371.315 62.8926H379.956Z" fill="#0D6073"/>
<path d="M378.444 66.6018C378.444 67.1205 378.279 67.6275 377.97 68.0587C377.662 68.4899 377.223 68.826 376.71 69.0245C376.197 69.223 375.632 69.2749 375.088 69.1737C374.543 69.0725 374.043 68.8228 373.65 68.4561C373.257 68.0893 372.99 67.6221 372.881 67.1134C372.773 66.6048 372.829 66.0775 373.041 65.5984C373.254 65.1192 373.614 64.7097 374.076 64.4215C374.537 64.1334 375.08 63.9796 375.636 63.9796C376.38 63.9796 377.095 64.2559 377.621 64.7476C378.148 65.2394 378.444 65.9064 378.444 66.6018Z" fill="#DD6A57"/>
<path d="M378.444 79.8644C378.444 80.383 378.279 80.89 377.97 81.3212C377.662 81.7524 377.223 82.0886 376.71 82.287C376.197 82.4855 375.632 82.5374 375.088 82.4362C374.543 82.3351 374.043 82.0853 373.65 81.7186C373.257 81.3519 372.99 80.8846 372.881 80.376C372.773 79.8673 372.829 79.34 373.041 78.8609C373.254 78.3817 373.614 77.9722 374.076 77.684C374.537 77.3959 375.08 77.2421 375.636 77.2421C376.38 77.2421 377.095 77.5184 377.621 78.0102C378.148 78.5019 378.444 79.1689 378.444 79.8644Z" fill="white"/>
<path d="M378.444 73.292C378.442 73.8103 378.277 74.3168 377.967 74.7473C377.658 75.1778 377.219 75.513 376.706 75.7106C376.193 75.9082 375.628 75.9593 375.084 75.8575C374.54 75.7557 374.04 75.5055 373.648 75.1386C373.256 74.7716 372.989 74.3044 372.881 73.7959C372.773 73.2874 372.829 72.7604 373.042 72.2816C373.255 71.8027 373.614 71.3935 374.076 71.1056C374.538 70.8177 375.08 70.6641 375.636 70.6641C376.005 70.6641 376.37 70.7321 376.712 70.8642C377.053 70.9964 377.362 71.19 377.623 71.4341C377.884 71.6782 378.091 71.9679 378.232 72.2867C378.372 72.6055 378.444 72.9471 378.444 73.292Z" fill="white"/>
<path d="M377.808 149.522H373.464L373.836 138.899L373.95 135.598H377.232L377.37 138.899L377.808 149.522Z" fill="#0D6073"/>
<path d="M377.37 138.899H373.835L373.949 135.598H377.232L377.37 138.899Z" fill="#455A64"/>
<path d="M55.4957 162.953H126.898C126.898 162.953 119.098 131.805 91.2028 131.805C63.308 131.805 56.6958 155.999 55.4957 162.953Z" fill="#0D6073"/>
<path opacity="0.2" d="M55.4957 162.953H126.898C126.898 162.953 119.098 131.805 91.2028 131.805C63.308 131.805 56.6958 155.999 55.4957 162.953Z" fill="black"/>
<path d="M262.682 166.315H334.084C334.084 166.315 326.284 135.167 298.389 135.167C270.494 135.167 263.912 159.361 262.682 166.315Z" fill="#0D6073"/>
<path opacity="0.2" d="M262.682 166.315H334.084C334.084 166.315 326.284 135.167 298.389 135.167C270.494 135.167 263.912 159.361 262.682 166.315Z" fill="black"/>
<path d="M39.1571 106.143C37.6271 108.384 34.957 133.424 34.783 134.299C34.609 135.173 32.3829 139.005 32.3829 139.734C32.3829 140.462 31.7829 151.735 32.1129 152.464C32.8356 153.794 33.6577 155.074 34.573 156.296C34.963 156.733 45.0793 164.863 46.2133 164.976C47.3474 165.088 57.8117 165.155 58.0097 164.976C58.2077 164.796 59.4137 134.719 91.1667 134.719C122.92 134.719 122.572 166.656 123.16 166.78C123.748 166.903 265.886 169.917 265.886 169.917C265.886 165.026 266.294 135.923 297.441 135.923C317.734 135.923 327.988 151.539 328.342 163.059C328.486 167.856 327.628 173.145 327.91 173.145C328.846 173.145 332.05 173.363 332.596 173.145C333.142 172.926 339.796 168.836 340.33 168.69C340.864 168.545 344.704 168.472 345.64 168.253C346.576 168.035 353.141 162.65 353.261 162.454C353.381 162.258 353.573 160.123 353.609 159.938C353.645 159.753 360.293 152.167 360.605 151.332C360.917 150.497 361.031 143.56 361.031 142.866C361.031 142.171 348.965 123.899 346.15 121.932C343.336 119.966 323.302 113.399 317.44 112.407C311.577 111.415 279.356 106.933 278.186 106.171C277.016 105.409 221.995 75.9422 212.424 73.7514C204.69 72.0032 115.167 74.4069 110.481 74.6255C105.795 74.844 92.8227 77.0348 91.5747 77.0348C90.3267 77.0348 75.9742 76.962 75.0922 77.3262C74.2102 77.6904 75.0922 80.901 76.1842 81.4837C77.2763 82.0664 41.8152 102.204 39.1571 106.143Z" fill="#0D6073"/>
<path d="M41.2093 104.243C41.5453 104.535 47.1434 104.664 47.7315 104.445C48.3195 104.227 83.5765 82.3241 83.6005 81.6854C83.6005 81.366 77.0003 81.45 76.1843 81.4837C75.3683 81.5173 40.5612 103.694 41.2093 104.243Z" fill="#455A64"/>
<path d="M80.4745 103.896C82.0045 108.11 267.188 115.988 268.202 113.948C268.952 112.435 252.386 100.013 244.651 95.9621C236.917 91.9111 214.771 80.2062 203.85 79.0015C192.93 77.7968 170.849 77.8809 151.589 78.2395C132.484 78.5645 109.989 79.0015 102.021 82.1617C95.0549 84.9632 79.2624 100.545 80.4745 103.896Z" fill="#263238"/>
<path d="M85.6406 101.436C86.1026 103.022 127 107.129 174.929 109.208C222.859 111.287 246.523 111.612 247.112 111.393C247.7 111.175 245.467 99.2511 244.651 98.265C243.835 97.2788 209.496 80.8673 204.108 80.4247C198.72 79.982 169.595 79.9316 154.907 80.1501C140.218 80.3687 109.563 82.0104 104.343 83.9771C99.741 85.714 85.1666 99.8507 85.6406 101.436Z" fill="#455A64"/>
<g opacity="0.1">
<path d="M149.099 80.2902L121.648 105.924C116.752 105.521 112.221 105.118 108.153 104.731L133.588 80.985C139.012 80.66 144.418 80.4247 149.099 80.2902Z" fill="white"/>
<path d="M247.016 108.866L244.249 111.449C241.449 111.449 236.619 111.363 229.759 111.191L244.039 97.8615C244.252 97.9762 244.453 98.1094 244.639 98.2594C245.234 98.9654 246.542 105.252 247.016 108.866Z" fill="white"/>
<path d="M169.559 80.0437L140.368 107.32C138.028 107.168 135.73 107.011 133.492 106.849L162.137 80.0941C164.489 80.0605 166.991 80.0437 169.559 80.0437Z" fill="white"/>
<path d="M232.219 91.9895L212.214 110.681L205.098 110.435L227.299 89.7034C228.985 90.4711 230.641 91.2387 232.219 91.9895Z" fill="white"/>
<path d="M128.698 81.2427L104.007 104.311L102.123 104.115L126.46 81.3884L128.698 81.2427Z" fill="white"/>
<path d="M236.473 94.0234L218.473 110.866L216.445 110.799L235.117 93.3567L236.473 94.0234Z" fill="white"/>
<path d="M210.57 82.453L181.62 109.488L179.604 109.41L209.1 81.8871L210.57 82.453Z" fill="white"/>
<path d="M109.077 83.0021L88.4127 102.277C87.7226 102.148 87.1526 102.025 86.7146 101.901L106.515 83.4111C107.265 83.2767 108.117 83.1366 109.077 83.0021Z" fill="white"/>
</g>
<path d="M111.297 82.7108C111.489 82.7108 111.579 82.9461 111.411 83.3663C110.451 85.8485 102.957 99.9067 101.085 103.19C100.967 103.367 100.812 103.519 100.63 103.639C100.447 103.758 100.241 103.842 100.023 103.885L113.223 105.202C112.992 105.115 112.8 104.955 112.681 104.751C112.562 104.547 112.522 104.31 112.569 104.081C112.701 103.302 117.604 86.7786 119.17 82.7164C119.345 82.3402 119.657 82.0345 120.052 81.8535C120.316 81.8535 117.802 81.8871 115.414 82.1168C113.289 82.3297 111.297 82.7108 111.297 82.7108Z" fill="#263238"/>
<path d="M128.698 81.2427C128.698 81.2427 128.938 81.366 128.95 81.803C129.034 85.6916 129.502 105.162 129.1 106.227C129.074 106.333 129.005 106.425 128.908 106.485L131.404 106.67C131.275 106.506 131.196 106.312 131.176 106.109C130.894 102.82 130.642 84.9688 130.69 81.6686C130.705 81.4638 130.787 81.2683 130.924 81.1082L128.698 81.2427Z" fill="#263238"/>
<path d="M169.757 80.8449C170.051 81.7078 170.537 107.129 170.537 107.947C170.537 108.765 169.535 108.961 169.535 108.961L185.01 109.634C185.01 109.634 184.008 109.37 183.81 108.933C183.612 108.496 178.769 81.0858 178.799 80.7273C178.829 80.3687 179.591 80.0325 179.591 80.0325H168.791C169.003 80.0995 169.198 80.206 169.364 80.3457C169.53 80.4854 169.664 80.6553 169.757 80.8449Z" fill="#263238"/>
<path d="M41.8932 109.718C39.9911 109.942 35.719 114.094 35.407 114.968C35.095 115.842 33.9249 121.753 34.549 122.627C35.173 123.501 37.4411 125.692 39.3911 125.765C41.3412 125.838 50.8755 121.608 51.7335 120.879C52.5915 120.151 53.2155 115.707 52.2015 114.279C51.1875 112.85 44.3113 109.426 41.8932 109.718Z" fill="white"/>
<path d="M51.7336 120.879C50.8756 121.607 41.3413 125.838 39.3912 125.765C37.9032 125.709 36.2291 124.42 35.2451 123.423C36.3538 124.172 37.6929 124.565 39.0612 124.544C40.1113 124.454 49.0395 120.868 50.1856 119.887C51.3316 118.907 51.3856 115.214 51.2296 114.548C51.0736 113.881 45.3134 110.412 45.3134 110.412C48.1635 111.438 51.5176 113.309 52.2016 114.273C53.2157 115.724 52.5916 120.145 51.7336 120.879Z" fill="#EBEBEB"/>
<path d="M34.003 142.726C33.475 143.219 33.295 146.922 33.847 147.247C34.399 147.572 37.5971 147.539 38.2211 147.247C38.8452 146.956 40.4472 144.182 40.3272 143.236C40.2072 142.289 34.627 142.143 34.003 142.726Z" fill="white"/>
<path d="M319.174 122.224C320.86 124.773 333.238 129.284 337.864 129.995C340.781 130.444 350.873 131.038 351.461 130.556C352.049 130.074 347.183 123.77 344.663 122.235C342.143 120.7 329.548 116.766 325.738 116.929C321.928 117.091 317.476 119.646 319.174 122.224Z" fill="white"/>
<path d="M351.461 130.544C350.861 131.038 340.78 130.444 337.864 129.984C333.238 129.273 320.86 124.762 319.174 122.213C317.488 119.663 321.928 117.075 325.738 116.906C326.034 116.89 326.33 116.89 326.626 116.906C323.08 118.128 322.354 120.717 324.514 122.196C326.674 123.675 333.598 127.132 336.364 127.855C339.028 128.555 348.965 130.001 349.829 129.368C349.993 129.185 350.113 128.971 350.178 128.741C350.243 128.51 350.253 128.269 350.207 128.034C351.119 129.34 351.683 130.36 351.461 130.544Z" fill="#EBEBEB"/>
<g opacity="0.5">
<path d="M81.4344 121.63C81.4463 123.187 80.7994 124.685 79.6344 125.799C78.4515 126.935 76.8342 127.586 75.1376 127.609C73.441 127.632 71.8039 127.025 70.5861 125.922C69.9708 125.365 69.4816 124.698 69.1475 123.962C68.8134 123.225 68.6412 122.433 68.6412 121.633C68.6412 120.833 68.8134 120.041 69.1475 119.304C69.4816 118.567 69.9708 117.9 70.5861 117.344C71.1883 116.796 71.9003 116.365 72.6814 116.074C73.4624 115.784 74.2971 115.64 75.1376 115.652C75.9782 115.663 76.808 115.83 77.5796 116.141C78.3513 116.452 79.0495 116.903 79.6344 117.467C80.799 118.578 81.446 120.075 81.4344 121.63ZM81.4344 121.63C81.4207 120.082 80.7496 118.603 79.5684 117.517C78.9837 116.991 78.2939 116.578 77.5382 116.301C76.7825 116.024 75.9759 115.889 75.1642 115.904C73.5506 115.934 72.0152 116.558 70.8921 117.641C69.7804 118.71 69.1585 120.142 69.1585 121.633C69.1585 123.123 69.7804 124.555 70.8921 125.625C72.0152 126.707 73.5506 127.332 75.1642 127.362C75.9759 127.376 76.7825 127.241 77.5382 126.964C78.2939 126.687 78.9837 126.274 79.5684 125.748C80.7488 124.66 81.4197 123.179 81.4344 121.63Z" fill="black"/>
<path d="M55.4956 139.409C54.8596 138.086 54.2956 136.753 53.6956 135.408C53.0955 134.063 52.5915 132.718 52.0395 131.368C51.4875 130.018 50.9895 128.656 50.4975 127.289C50.0054 125.922 49.5134 124.549 49.0814 123.16C49.7234 124.482 50.2815 125.815 50.8815 127.155C51.4815 128.494 51.9855 129.85 52.5435 131.2C53.1015 132.55 53.5936 133.912 54.0856 135.279C54.5776 136.646 55.0516 138.019 55.4956 139.409Z" fill="black"/>
<path d="M33.511 139.409C36.5891 139.353 39.6612 139.358 42.7393 139.369L51.9616 139.459L61.1838 139.666C64.2559 139.756 67.328 139.851 70.4001 140.002C67.328 140.059 64.2499 140.053 61.1778 140.047L51.9496 139.952L42.7273 139.745C39.6552 139.655 36.5831 139.56 33.511 139.409Z" fill="black"/>
<path d="M178.703 111.466L179.76 118.464L180.216 121.972C180.288 122.56 180.354 123.143 180.402 123.737C180.45 124.331 180.402 124.913 180.402 125.507L180.3 139.638L180.18 146.709L180.114 150.239L180.084 152.01L179.94 153.769L179.34 160.818L178.703 167.833L179.088 160.779L179.52 153.73L179.628 151.965V150.2L179.664 146.67L179.742 139.616L180 125.496C180 124.908 180.054 124.314 180 123.737C179.946 123.16 179.91 122.566 179.85 121.983L179.472 118.47L178.703 111.466Z" fill="black"/>
<path d="M261.8 114.676L263.102 121.708L263.702 125.25L263.858 126.129C263.926 126.422 263.964 126.72 263.972 127.02C263.972 127.614 263.972 128.208 263.972 128.808C263.93 133.565 263.804 138.333 263.648 143.073C263.608 144.261 263.554 145.449 263.486 146.637C263.415 147.835 263.168 149.019 262.754 150.155C262.058 152.447 261.26 154.705 260.384 156.946C259.529 159.194 258.511 161.384 257.336 163.502L256.862 164.286C256.7 164.544 256.514 164.791 256.34 165.043C256.157 165.296 255.957 165.538 255.74 165.766L255.428 166.119C255.258 166.213 255.067 166.267 254.87 166.275C253.58 166.399 252.314 166.416 251.036 166.455C240.835 166.651 230.665 166.567 220.477 166.5C210.288 166.432 200.106 166.292 189.918 166.119C179.729 165.945 169.553 165.682 159.371 165.334C154.283 165.138 149.17 164.981 144.106 164.555C143.455 164.51 142.809 164.415 142.174 164.27C141.814 164.141 141.604 163.984 141.298 163.861C140.992 163.737 140.734 163.603 140.446 163.48C139.288 162.992 138.1 162.561 136.948 162.023C135.781 161.506 134.7 160.834 133.738 160.028C132.902 159.115 132.128 158.153 131.422 157.148C128.554 153.226 125.812 149.203 123.076 145.197C120.34 141.19 117.628 137.156 114.933 133.122C112.239 129.088 109.581 125.025 106.953 120.952L105.981 119.417L105.747 119.013L105.633 118.812C105.614 118.738 105.604 118.663 105.603 118.587L105.507 117.702C105.399 116.514 105.303 115.326 105.255 114.139C105.255 113.842 105.255 113.545 105.255 113.242C105.297 112.946 105.365 112.653 105.459 112.368C105.633 111.808 105.843 111.247 106.059 110.687C106.485 109.566 106.941 108.446 107.415 107.353C106.951 108.474 106.509 109.594 106.089 110.715C105.885 111.275 105.681 111.836 105.489 112.396C105.397 112.68 105.331 112.97 105.291 113.264C105.291 113.561 105.291 113.858 105.291 114.155C105.345 115.338 105.459 116.526 105.573 117.708L105.675 118.593C105.681 118.667 105.693 118.74 105.711 118.812L105.825 119.002C105.903 119.125 105.969 119.249 106.053 119.377L107.037 120.907C109.695 124.958 112.437 128.987 115.125 133.01C120.526 141.05 125.968 149.113 131.686 156.98C132.379 157.957 133.136 158.892 133.954 159.781C134.895 160.561 135.949 161.212 137.086 161.715C138.22 162.236 139.402 162.661 140.572 163.155C140.866 163.278 141.172 163.401 141.442 163.536C141.712 163.67 142.042 163.849 142.276 163.928C142.881 164.056 143.494 164.143 144.112 164.186C149.17 164.6 154.271 164.746 159.359 164.92C169.559 165.244 179.717 165.452 189.9 165.626C200.082 165.799 210.264 165.984 220.453 166.091C230.641 166.197 240.853 166.298 251 166.13C252.266 166.096 253.55 166.079 254.798 165.962C254.942 165.962 255.128 165.906 255.152 165.9L255.452 165.564C255.658 165.344 255.847 165.11 256.016 164.863C256.184 164.617 256.37 164.376 256.532 164.124L257 163.356C258.195 161.248 259.232 159.065 260.102 156.823C260.986 154.582 261.786 152.327 262.502 150.06C262.91 148.943 263.156 147.781 263.234 146.603L263.408 143.039C263.612 138.288 263.78 133.514 263.864 128.779C263.864 128.186 263.864 127.592 263.864 127.003C263.855 126.706 263.819 126.41 263.756 126.118L263.606 125.238L263.006 121.72L261.8 114.676Z" fill="black"/>
<path d="M327.346 126.768C326.023 127.807 324.619 128.753 323.146 129.598C321.688 130.477 320.2 131.306 318.724 132.153C317.248 132.999 315.724 133.783 314.217 134.568C312.711 135.352 311.181 136.12 309.627 136.842C311.073 135.946 312.543 135.089 314.013 134.237L318.454 131.727L322.93 129.278L325.174 128.057C325.925 127.668 326.65 127.238 327.346 126.768Z" fill="black"/>
<path d="M112.941 140.68L132.778 141.168L152.621 141.728L192.3 142.86L231.973 144.154L251.81 144.804L271.64 145.533L251.798 145.045L231.961 144.485L192.282 143.353L152.609 142.059L132.772 141.403L112.941 140.68Z" fill="black"/>
<path d="M111.771 114.127L110.991 114.167H110.799C110.757 114.167 110.751 114.2 110.727 114.256C110.694 114.37 110.67 114.486 110.655 114.604C110.606 115.078 110.596 115.556 110.625 116.032C110.632 116.269 110.654 116.505 110.691 116.738C110.706 116.844 110.735 116.947 110.775 117.047H110.835H110.979C111.483 117.091 112.005 117.103 112.515 117.119C114.58 117.181 116.65 117.243 118.714 117.276L121.81 117.36H123.358H124.018C124.051 117.303 124.079 117.243 124.102 117.181C124.133 117.072 124.157 116.962 124.174 116.85C124.241 116.383 124.263 115.91 124.24 115.439C124.233 115.204 124.211 114.97 124.174 114.738C124.158 114.646 124.13 114.555 124.09 114.469C123.999 114.428 123.902 114.401 123.802 114.391C122.8 114.228 121.756 114.172 120.73 114.077C121.768 114.05 122.808 114.076 123.844 114.155C123.999 114.158 124.151 114.2 124.282 114.279C124.377 114.397 124.439 114.536 124.462 114.682C124.517 114.926 124.555 115.173 124.576 115.422C124.621 115.914 124.621 116.409 124.576 116.901C124.562 117.029 124.54 117.156 124.51 117.282C124.482 117.458 124.381 117.617 124.228 117.725C124.184 117.754 124.132 117.77 124.078 117.769H123.958H123.748H121.804L118.696 117.73C116.632 117.657 114.562 117.601 112.497 117.461C111.975 117.416 111.465 117.388 110.937 117.316C110.859 117.311 110.783 117.296 110.709 117.271C110.663 117.263 110.618 117.248 110.577 117.226C110.533 117.192 110.5 117.148 110.481 117.097C110.429 116.971 110.396 116.839 110.385 116.705C110.358 116.459 110.348 116.212 110.355 115.965C110.363 115.477 110.414 114.989 110.505 114.508C110.53 114.386 110.566 114.266 110.613 114.15C110.625 114.118 110.641 114.088 110.661 114.06C110.676 114.042 110.695 114.027 110.717 114.018C110.739 114.008 110.763 114.003 110.787 114.004H110.979L111.771 114.127Z" fill="black"/>
<path d="M187.704 115.881L186.93 115.92H186.738C186.696 115.92 186.684 115.954 186.66 116.01C186.626 116.124 186.603 116.24 186.594 116.357C186.543 116.832 186.531 117.31 186.558 117.786C186.558 118.027 186.588 118.262 186.624 118.492C186.641 118.598 186.671 118.701 186.714 118.8H186.768H186.918C187.422 118.845 187.944 118.856 188.454 118.873C190.518 118.935 192.582 118.996 194.646 119.03L197.748 119.114H199.29H199.926C199.962 119.114 199.986 119.114 199.926 119.114C199.961 119.06 199.988 119.002 200.004 118.94C200.037 118.832 200.063 118.721 200.082 118.61C200.146 118.142 200.168 117.669 200.148 117.198C200.139 116.963 200.115 116.729 200.076 116.497C200.061 116.405 200.035 116.315 199.998 116.229C199.908 116.187 199.81 116.161 199.71 116.15C198.702 115.988 197.664 115.932 196.638 115.836C197.675 115.81 198.712 115.835 199.746 115.909C199.902 115.912 200.054 115.957 200.184 116.038C200.281 116.156 200.345 116.295 200.37 116.441C200.424 116.688 200.454 116.935 200.484 117.181C200.529 117.673 200.529 118.168 200.484 118.66C200.47 118.788 200.448 118.916 200.418 119.041C200.358 119.17 200.382 119.31 200.136 119.484C200.091 119.514 200.036 119.53 199.98 119.529H199.866H199.656H197.706L194.604 119.49C192.534 119.417 190.47 119.361 188.4 119.215C187.884 119.176 187.374 119.142 186.846 119.075C186.766 119.07 186.687 119.055 186.612 119.03C186.568 119.019 186.526 119.004 186.486 118.985C186.443 118.949 186.408 118.905 186.384 118.856C186.333 118.73 186.303 118.598 186.294 118.464C186.267 118.218 186.255 117.972 186.258 117.725C186.271 117.236 186.323 116.749 186.414 116.268C186.436 116.146 186.47 116.026 186.516 115.909C186.53 115.877 186.548 115.847 186.57 115.82C186.584 115.801 186.603 115.786 186.625 115.776C186.647 115.766 186.671 115.762 186.696 115.763H186.888L187.704 115.881Z" fill="black"/>
</g>
<path d="M111.439 183.914C122.97 173.146 122.97 155.687 111.439 144.92C99.9078 134.152 81.2124 134.152 69.6814 144.92C58.1504 155.687 58.1504 173.146 69.6814 183.914C81.2124 194.681 99.9078 194.681 111.439 183.914Z" fill="#263238"/>
<path d="M105.804 178.652C114.224 170.79 114.224 158.043 105.804 150.181C97.3852 142.319 83.735 142.319 75.3158 150.181C66.8966 158.043 66.8966 170.79 75.3158 178.652C83.735 186.514 97.3852 186.514 105.804 178.652Z" fill="#DBDBDB"/>
<path d="M90.5607 182.984C101.539 182.984 110.439 174.673 110.439 164.421C110.439 154.169 101.539 145.858 90.5607 145.858C79.5821 145.858 70.6821 154.169 70.6821 164.421C70.6821 174.673 79.5821 182.984 90.5607 182.984Z" fill="#A6A6A6"/>
<path d="M93.6809 159.765H87.4347C89.5407 156.918 82.2025 147.001 82.2025 147.001L85.4966 145.981C87.6807 149.483 88.7727 150.508 90.5728 150.508C92.3728 150.508 93.4589 149.483 95.6489 145.981L98.931 147.006C98.931 147.006 91.5748 156.918 93.6809 159.765Z" fill="#DBDBDB"/>
<path d="M86.9126 160.118L84.9866 165.665C82.7425 162.914 70.3701 166.371 70.3701 166.371V163.138C74.6122 162.28 75.9923 161.625 76.5503 160.028C77.1083 158.431 76.3943 157.148 73.5082 154.117L75.5663 151.522C75.5663 151.522 83.3665 161.109 86.9126 160.118Z" fill="#DBDBDB"/>
<path d="M85.1846 166.236L90.2368 169.665C86.7387 170.786 86.4387 182.861 86.4387 182.861L83.1386 181.891C83.5706 177.857 83.3366 176.428 81.8785 175.442C80.4205 174.456 78.8784 174.686 74.9183 176.316L72.8962 173.688C72.8962 173.688 85.1006 169.693 85.1846 166.236Z" fill="#DBDBDB"/>
<path d="M90.8967 169.665L95.9489 166.236C96.0329 169.693 108.219 173.688 108.219 173.688L106.209 176.322C102.237 174.686 100.707 174.456 99.255 175.442C97.8029 176.428 97.5629 177.857 97.9949 181.891L94.6948 182.861C94.6948 182.861 94.3768 170.808 90.8967 169.665Z" fill="#DBDBDB"/>
<path d="M96.1349 165.665L94.2029 160.118C97.749 161.109 105.603 151.522 105.603 151.522L107.667 154.122C104.775 157.142 104.067 158.431 104.619 160.028C105.171 161.625 106.563 162.269 110.805 163.143L110.769 166.371C110.769 166.371 98.379 162.914 96.1349 165.665Z" fill="#DBDBDB"/>
<path d="M90.5607 169.677C93.7486 169.677 96.3329 167.263 96.3329 164.286C96.3329 161.309 93.7486 158.896 90.5607 158.896C87.3729 158.896 84.7886 161.309 84.7886 164.286C84.7886 167.263 87.3729 169.677 90.5607 169.677Z" fill="#DBDBDB"/>
<path d="M307.488 188.659C322.817 183.481 330.748 167.68 325.204 153.365C319.659 139.051 302.738 131.644 287.409 136.822C272.081 141.999 264.149 157.8 269.693 172.115C275.238 186.429 292.159 193.836 307.488 188.659Z" fill="#263238"/>
<path d="M318.028 169.571C321.067 158.821 314.199 147.805 302.687 144.967C291.175 142.129 279.379 148.542 276.339 159.293C273.3 170.043 280.168 181.058 291.68 183.897C303.192 186.735 314.989 180.321 318.028 169.571Z" fill="#DBDBDB"/>
<path d="M297.171 182.984C308.15 182.984 317.05 174.673 317.05 164.421C317.05 154.169 308.15 145.858 297.171 145.858C286.192 145.858 277.292 154.169 277.292 164.421C277.292 174.673 286.192 182.984 297.171 182.984Z" fill="#A6A6A6"/>
<path d="M300.303 159.765H294.045C296.157 156.918 288.813 147.001 288.813 147.001L292.095 145.975C294.279 149.477 295.371 150.503 297.171 150.503C298.971 150.503 300.057 149.477 302.253 145.975L305.529 147.001C305.529 147.001 298.185 156.918 300.303 159.765Z" fill="#DBDBDB"/>
<path d="M293.523 160.118L291.597 165.665C289.353 162.914 276.981 166.371 276.981 166.371L276.951 163.138C281.193 162.28 282.573 161.625 283.131 160.028C283.689 158.431 282.975 157.148 280.089 154.117L282.147 151.522C282.147 151.522 289.977 161.109 293.523 160.118Z" fill="#DBDBDB"/>
<path d="M291.795 166.236L296.847 169.665C293.355 170.786 293.049 182.861 293.049 182.861L289.749 181.891C290.187 177.857 289.947 176.428 288.495 175.442C287.043 174.456 285.495 174.686 281.535 176.316L279.525 173.688C279.525 173.688 291.711 169.693 291.795 166.236Z" fill="#DBDBDB"/>
<path d="M297.495 169.665L302.547 166.236C302.631 169.693 314.812 173.688 314.812 173.688L312.801 176.322C308.829 174.686 307.299 174.456 305.847 175.442C304.395 176.428 304.155 177.857 304.587 181.891L301.287 182.861C301.287 182.861 300.987 170.808 297.495 169.665Z" fill="#DBDBDB"/>
<path d="M302.745 165.665L300.813 160.118C304.359 161.109 312.213 151.522 312.213 151.522L314.272 154.122C311.379 157.142 310.671 158.431 311.229 160.028C311.787 161.625 313.168 162.269 317.41 163.143L317.374 166.371C317.374 166.371 304.989 162.914 302.745 165.665Z" fill="#DBDBDB"/>
<path d="M297.171 169.677C300.359 169.677 302.943 167.263 302.943 164.286C302.943 161.309 300.359 158.896 297.171 158.896C293.983 158.896 291.399 161.309 291.399 164.286C291.399 167.263 293.983 169.677 297.171 169.677Z" fill="#DBDBDB"/>
<path d="M240.331 101.106C239.257 102.114 239.353 111.102 240.133 111.83C240.913 112.558 251.618 113.22 252.476 107.639C253.334 102.058 242.011 99.5369 240.331 101.106Z" fill="#0D6073"/>
<path d="M279.387 106.479H270.68C248.024 92.5218 216.931 78.7101 216.931 78.7101L222.091 77.5503C240.913 86.0558 277.209 105.515 278.163 106.126C278.554 106.289 278.965 106.407 279.387 106.479Z" fill="#455A64"/>
<g opacity="0.5">
<path d="M55.4957 146.407C57.3112 143.606 59.5323 141.053 62.0959 138.82C64.6594 136.565 67.5182 134.622 70.6042 133.038C76.827 129.881 83.8156 128.273 90.8968 128.37L93.5369 128.482L94.8569 128.544C95.2949 128.589 95.733 128.656 96.171 128.712L98.787 129.06C99.6511 129.228 100.503 129.441 101.361 129.62C104.793 130.412 108.064 131.722 111.045 133.497C114.007 135.284 116.651 137.492 118.882 140.042C121.055 142.616 122.912 145.408 124.42 148.368C122.801 145.477 120.856 142.755 118.618 140.249C116.365 137.772 113.713 135.638 110.757 133.923C104.841 130.477 97.815 129.076 90.8968 129.015C87.4222 128.964 83.9541 129.312 80.5705 130.051C77.1888 130.803 73.9227 131.951 70.8502 133.469C67.7674 134.987 64.9008 136.86 62.3179 139.044C59.7074 141.208 57.4136 143.683 55.4957 146.407Z" fill="white"/>
<path d="M262.37 146.407C264.185 143.606 266.406 141.053 268.97 138.82C271.541 136.564 274.408 134.621 277.502 133.038C283.729 129.879 290.722 128.271 297.807 128.37L300.447 128.483L301.767 128.544C302.205 128.589 302.643 128.656 303.075 128.712L305.697 129.06C306.555 129.228 307.413 129.441 308.271 129.62C311.704 130.412 314.975 131.722 317.956 133.497C320.917 135.284 323.561 137.492 325.792 140.042C327.965 142.616 329.822 145.408 331.33 148.368C329.614 145.522 327.844 142.692 325.528 140.249C323.272 137.775 320.621 135.641 317.668 133.923C311.751 130.477 304.725 129.076 297.801 129.015C294.328 128.964 290.862 129.312 287.481 130.051C280.683 131.568 274.406 134.661 269.228 139.044C266.603 141.204 264.297 143.68 262.37 146.407Z" fill="white"/>
<path d="M59.7557 100.646C64.3579 97.2844 69.026 93.9954 73.7242 90.7512C78.4223 87.507 83.1744 84.3188 88.0646 81.2987C88.6646 80.9345 89.3006 80.5647 89.9427 80.2229C90.2607 80.0437 90.5847 79.8756 90.9267 79.7187C91.271 79.5618 91.6307 79.4361 92.0007 79.3433C93.4168 78.9567 94.8328 78.6205 96.2488 78.2899C99.0929 77.6343 101.937 77.0068 104.811 76.4857C107.696 75.9687 110.623 75.6875 113.559 75.6452C116.487 75.5892 119.41 75.5948 122.332 75.7237C119.41 75.7237 116.487 75.8021 113.577 75.9702C110.667 76.0716 107.772 76.4091 104.925 76.9788C102.081 77.5783 99.2309 78.189 96.4109 78.867C94.9948 79.2088 93.5788 79.5506 92.2107 79.9428C91.8747 80.0269 91.549 80.1433 91.2387 80.2902C90.9267 80.4415 90.6087 80.604 90.3027 80.7777C89.7026 81.1195 89.0666 81.4837 88.4546 81.8535C83.5645 84.8119 78.8543 88.0169 74.0542 91.1602L59.7557 100.646Z" fill="white"/>
</g>
<path opacity="0.1" d="M288.813 136.758C266.192 141.588 265.862 165.513 265.862 169.901C265.862 169.901 123.718 166.875 123.136 166.763C122.662 166.668 122.806 145.723 106.029 137.739C113.566 141.218 123.22 149.645 126.874 161.95C127.27 163.261 147.971 165.312 183.354 166.371C218.737 167.43 249.494 166.763 255.356 165.995C261.218 165.228 268.016 136.674 288.813 136.758Z" fill="black"/>
<path opacity="0.1" d="M360.581 151.298C360.269 152.139 353.621 159.703 353.591 159.905C353.561 160.106 353.357 162.202 353.237 162.426C353.117 162.65 346.553 168.029 345.617 168.22C344.681 168.41 340.852 168.511 340.312 168.657C339.772 168.802 333.112 172.887 332.572 173.106C332.032 173.324 328.822 173.106 327.886 173.106C327.604 173.106 328.486 167.833 328.318 163.02C328.06 154.66 322.594 144.138 311.854 139C317.68 140.159 327.4 147.589 331.324 155.249C335.248 162.908 334.24 163.474 335.158 164.398C336.076 165.323 339.118 163.457 340.522 163.127C341.926 162.796 346.523 162.689 348.263 162.364C350.003 162.039 350.303 159.081 351.509 158.442C352.715 157.804 358.841 153.231 360.581 151.298Z" fill="black"/>
<path d="M211.5 23.3347C210.756 16.342 205.596 9.38293 196.5 9.38293C187.404 9.38293 182.28 16.342 181.536 23.3347C180.389 34.1262 188.19 43.9037 196.5 52.8238C204.816 43.9037 212.616 34.1262 211.5 23.3347ZM196.5 31.1174C194.878 31.1163 193.292 30.666 191.944 29.8234C190.596 28.9809 189.546 27.7839 188.926 26.3839C188.306 24.9839 188.145 23.4437 188.463 21.9582C188.78 20.4726 189.562 19.1083 190.71 18.0379C191.858 16.9675 193.32 16.239 194.912 15.9446C196.503 15.6501 198.152 15.8029 199.65 16.3837C201.149 16.9644 202.429 17.947 203.329 19.2072C204.23 20.4674 204.709 21.9486 204.708 23.4635C204.709 24.4698 204.497 25.4663 204.085 26.396C203.672 27.3257 203.068 28.1702 202.305 28.8812C201.543 29.5923 200.637 30.1558 199.641 30.5395C198.645 30.9232 197.578 31.1196 196.5 31.1174Z" fill="#0D6073"/>
<path d="M232.255 210.176C233.455 210.529 266.798 210.125 268.058 209.352C268.544 209.066 268.76 204.522 268.862 199.026V198.852C268.862 197.731 268.898 196.555 268.904 195.372C268.904 195.21 268.904 195.047 268.904 194.885L267.302 178.72L244.976 178.927L247.178 194.941L247.208 195.574L247.34 198.891V199.233C247.34 199.233 234.643 204.718 233.353 205.705C232.063 206.691 231.085 209.856 232.255 210.176Z" fill="#DD6A57"/>
<path d="M232.255 210.176C233.455 210.529 266.798 210.125 268.058 209.352C268.544 209.066 268.76 204.522 268.862 199.026V198.852C268.862 197.731 268.898 196.555 268.904 195.372C268.904 195.21 268.904 195.047 268.904 194.885L247.16 194.941L247.19 195.574L247.322 198.891V199.233C247.322 199.233 234.625 204.718 233.335 205.705C232.045 206.691 231.085 209.856 232.255 210.176Z" fill="#EBEBEB"/>
<path d="M232.255 210.17C232.855 210.355 241.922 210.333 250.784 210.17C252.584 210.137 254.336 210.103 256.028 210.058C262.346 209.896 267.572 209.655 268.028 209.358C268.484 209.061 268.73 204.657 268.826 199.272C268.826 199.194 268.826 199.121 268.826 199.042C268.826 198.964 268.826 198.925 268.826 198.869L247.316 198.902V199.25C247.316 199.25 234.613 204.735 233.329 205.716C232.045 206.696 231.085 209.823 232.255 210.17Z" fill="#0D6073"/>
<path d="M232.615 208.96C238.243 208.764 260.942 208.467 266.516 208.669C266.564 208.669 266.564 208.697 266.516 208.702C260.948 209.01 238.243 209.139 232.621 209.05C232.501 209.044 232.501 208.966 232.615 208.96Z" fill="#263238"/>
<path d="M244.933 198.975C247.142 198.566 249.854 198.846 251.534 200.303C251.6 200.359 251.534 200.443 251.444 200.426C249.319 199.813 247.131 199.415 244.915 199.239C244.883 199.231 244.855 199.212 244.835 199.187C244.816 199.162 244.806 199.131 244.809 199.1C244.811 199.069 244.824 199.039 244.847 199.017C244.87 198.994 244.9 198.979 244.933 198.975Z" fill="#263238"/>
<path d="M243.35 199.894C245.558 199.485 248.27 199.765 249.98 201.216C250.046 201.278 249.98 201.362 249.89 201.34C247.765 200.728 245.577 200.332 243.362 200.157C243.329 200.153 243.299 200.137 243.277 200.114C243.255 200.091 243.242 200.061 243.24 200.03C243.239 199.999 243.249 199.969 243.269 199.944C243.289 199.919 243.317 199.902 243.35 199.894Z" fill="#263238"/>
<path d="M241.759 200.813C243.968 200.398 246.68 200.684 248.396 202.135C248.462 202.191 248.396 202.281 248.3 202.259C246.177 201.647 243.991 201.25 241.777 201.076C241.744 201.072 241.714 201.058 241.691 201.035C241.668 201.012 241.655 200.983 241.653 200.952C241.65 200.92 241.66 200.89 241.679 200.864C241.699 200.839 241.727 200.821 241.759 200.813Z" fill="#263238"/>
<path d="M250.784 210.165C252.584 210.131 254.336 210.097 256.028 210.053C262.346 209.89 267.572 209.649 268.028 209.352C268.484 209.055 268.73 204.651 268.826 199.267C268.826 199.188 268.826 199.115 268.826 199.037C268.826 198.958 268.826 198.919 268.826 198.863C265.892 200.779 255.506 207.234 250.784 210.165Z" fill="#263238"/>
<path d="M245.864 198.958H269.9C269.9 198.958 265.058 146.541 265.25 145.622C265.49 144.451 266.906 139.145 268.796 132.214L270.686 125.306C272.486 118.789 274.454 111.662 276.176 105.459C278.763 96.1638 280.779 88.947 280.779 88.947H260.378C260.378 88.947 257.978 95.9733 255.014 105.118C250.136 119.977 243.613 140.417 242.977 145.404C241.969 153.428 245.864 198.958 245.864 198.958Z" fill="#455A64"/>
<path d="M246.902 195.131C250.574 195.059 249.518 195.031 253.19 194.997C254.99 194.997 266.792 194.885 268.472 195.143C268.508 195.143 268.508 195.21 268.472 195.215C266.792 195.473 254.99 195.378 253.19 195.361C249.518 195.328 250.574 195.3 246.902 195.232C246.86 195.227 246.86 195.131 246.902 195.131Z" fill="#263238"/>
<path d="M260.702 142.423C261.488 139.179 262.664 135.996 263.702 132.814C265.786 126.34 267.882 119.872 269.99 113.41C271.042 110.179 272.098 106.948 273.158 103.717C273.699 102.086 274.233 100.456 274.785 98.8309C275.337 97.206 275.925 95.6595 276.411 94.0514C276.603 93.3959 276.711 93.7545 276.459 94.6117C275.955 96.2927 275.451 97.9736 274.929 99.6545C273.897 102.96 272.854 106.266 271.802 109.572C269.722 116.146 267.622 122.717 265.502 129.284L262.316 139.156C261.783 140.724 261.35 142.32 261.02 143.936C260.734 145.626 260.664 147.341 260.81 149.046C261.038 152.481 261.464 155.91 261.806 159.339C262.148 162.768 262.484 166.203 262.826 169.637C263.498 176.466 264.168 183.298 264.836 190.133C264.92 190.996 265.004 191.865 265.076 192.733C265.076 193.019 264.626 192.997 264.596 192.733C263.804 185.976 263.198 179.196 262.514 172.433C261.83 165.67 261.164 158.986 260.492 152.234C260.324 150.553 260.132 148.872 260.126 147.152C260.126 145.56 260.32 143.974 260.702 142.423Z" fill="#263238"/>
<path d="M262.718 88.947C264.134 99.1671 266.828 118.318 268.796 132.214C273.392 115.377 280.797 88.947 280.797 88.947H262.718Z" fill="#263238"/>
<path d="M257.702 210.473C258.866 210.831 292.239 210.54 293.505 209.772C293.991 209.492 294.225 204.948 294.345 199.451V199.278C294.345 198.157 294.393 196.98 294.399 195.798C294.399 195.636 294.399 195.473 294.399 195.311C294.477 187.377 293.865 179.14 293.865 179.14L272.048 179.275L272.702 195.288V195.922L272.828 199.239V199.575C272.828 199.575 260.108 205.027 258.812 206.001C257.516 206.976 256.55 210.12 257.702 210.473Z" fill="#DD6A57"/>
<path d="M257.702 210.473C258.866 210.831 292.239 210.54 293.505 209.772C293.991 209.492 294.225 204.948 294.345 199.451V199.278C294.345 198.157 294.393 196.98 294.399 195.798C294.399 195.636 294.399 195.473 294.399 195.311L272.702 195.288V195.921L272.828 199.239V199.575C272.828 199.575 260.108 205.027 258.812 206.001C257.516 206.976 256.55 210.12 257.702 210.473Z" fill="#EBEBEB"/>
<path d="M257.702 210.473C258.866 210.831 292.239 210.54 293.505 209.772C293.991 209.492 294.225 204.948 294.345 199.451V199.278L272.816 199.244V199.58C272.816 199.58 260.096 205.032 258.8 206.007C257.504 206.982 256.55 210.12 257.702 210.473Z" fill="#0D6073"/>
<path d="M258.086 209.262C263.708 209.083 286.413 208.865 291.987 209.083C292.029 209.083 292.029 209.117 291.987 209.117C286.413 209.408 263.708 209.459 258.086 209.347C257.966 209.347 257.966 209.296 258.086 209.262Z" fill="#263238"/>
<path d="M270.434 199.323C272.648 198.914 275.354 199.211 277.034 200.667C277.1 200.723 277.034 200.807 276.938 200.791C274.817 200.169 272.631 199.763 270.416 199.58C270.38 199.578 270.346 199.562 270.321 199.537C270.297 199.511 270.285 199.477 270.287 199.443C270.29 199.409 270.306 199.377 270.334 199.354C270.362 199.332 270.398 199.32 270.434 199.323Z" fill="#263238"/>
<path d="M268.85 200.236C271.058 199.827 273.77 200.124 275.451 201.581C275.517 201.637 275.451 201.721 275.361 201.704C273.239 201.083 271.053 200.677 268.838 200.494C268.802 200.492 268.767 200.477 268.742 200.452C268.718 200.427 268.705 200.393 268.706 200.359C268.708 200.325 268.724 200.293 268.751 200.27C268.778 200.247 268.814 200.234 268.85 200.236Z" fill="#263238"/>
<path d="M267.26 201.144C269.468 200.74 272.18 201.037 273.86 202.494C273.926 202.55 273.86 202.634 273.77 202.617C271.667 202 269.498 201.594 267.302 201.407C267.268 201.407 267.234 201.396 267.208 201.375C267.181 201.354 267.164 201.324 267.159 201.292C267.154 201.26 267.161 201.228 267.18 201.2C267.198 201.173 267.227 201.153 267.26 201.144Z" fill="#263238"/>
<path d="M261.068 88.947C261.068 88.947 261.536 98.052 263.768 105.258C263.948 105.852 264.14 106.44 264.368 107C266.411 107.767 268.375 108.705 270.236 109.802C270.236 109.802 270.47 117.125 270.704 125.289C270.968 134.422 271.238 144.603 271.184 146.76C270.98 154.84 272.264 199.272 272.264 199.272L296.265 199.362C296.265 199.362 291.921 149.746 291.951 146.788C291.993 142.031 290.787 121.014 289.851 105.667C289.251 96.2142 288.813 88.9302 288.813 88.9302L261.068 88.947Z" fill="#455A64"/>
<path d="M273.068 195.288C276.74 195.227 275.684 195.199 279.357 195.176C281.157 195.176 292.959 195.12 294.639 195.389C294.649 195.389 294.658 195.393 294.664 195.399C294.671 195.405 294.675 195.414 294.675 195.423C294.675 195.432 294.671 195.44 294.664 195.447C294.658 195.453 294.649 195.456 294.639 195.456C292.959 195.709 281.151 195.569 279.357 195.541C275.684 195.496 276.74 195.473 273.068 195.384C273.058 195.38 273.049 195.374 273.042 195.365C273.036 195.357 273.032 195.346 273.032 195.336C273.032 195.326 273.036 195.315 273.042 195.307C273.049 195.298 273.058 195.292 273.068 195.288Z" fill="#263238"/>
<path d="M286.803 92.1912C287.247 104.709 287.715 117.226 288.315 129.732C288.915 142.238 289.725 154.84 290.853 167.362C291.453 174.361 292.053 184.205 292.881 191.187C292.881 191.232 292.809 191.248 292.803 191.187C291.051 178.77 290.079 163.412 289.203 150.917C288.327 138.422 287.763 125.905 287.307 113.377C287.049 106.294 286.851 99.2175 286.623 92.1352C286.635 92.0903 286.797 92.1016 286.803 92.1912Z" fill="#263238"/>
<path d="M263.348 106.462C265.739 107.393 268.038 108.518 270.218 109.824C270.237 109.833 270.252 109.849 270.259 109.868C270.265 109.887 270.264 109.907 270.254 109.925C270.245 109.943 270.228 109.956 270.208 109.963C270.187 109.969 270.165 109.968 270.146 109.959C267.83 108.905 265.46 107.891 263.21 106.726C263.173 106.709 263.144 106.678 263.131 106.642C263.117 106.605 263.12 106.564 263.138 106.53C263.156 106.495 263.189 106.468 263.228 106.455C263.268 106.443 263.311 106.445 263.348 106.462Z" fill="#263238"/>
<path d="M261.902 96.3935C262.094 97.3573 262.34 98.3098 262.562 99.2623C262.784 100.215 262.928 101.078 263.162 101.963C263.374 102.814 263.84 103.591 264.506 104.204C264.884 104.529 265.298 104.821 265.706 105.118L266.384 105.599C266.354 105.471 266.33 105.342 266.306 105.213L266.108 104.12C265.958 103.308 265.82 102.495 265.688 101.683C265.43 100.086 265.19 98.4723 264.83 96.8922C264.83 96.8788 264.836 96.866 264.846 96.8565C264.856 96.8471 264.87 96.8418 264.884 96.8418C264.898 96.8418 264.912 96.8471 264.922 96.8565C264.932 96.866 264.938 96.8788 264.938 96.8922C265.364 98.4555 265.832 100.008 266.204 101.588C266.384 102.361 267.032 106.182 267.062 106.457C267.092 106.731 267.116 107.017 267.128 107.297C267.17 107.582 267.17 107.87 267.128 108.154C267.128 108.222 267.02 108.21 266.99 108.154C266.868 107.887 266.781 107.607 266.732 107.32C266.653 107.048 266.589 106.773 266.54 106.496L266.486 106.188C266.084 105.958 265.712 105.655 265.334 105.403C264.956 105.151 264.512 104.843 264.134 104.557C263.423 103.997 262.911 103.249 262.664 102.411C262.414 101.51 262.253 100.589 262.184 99.6601C262.052 98.5787 261.956 97.4861 261.794 96.3991C261.794 96.3543 261.902 96.3263 261.902 96.3935Z" fill="#263238"/>
<path d="M245.401 46.2457L248.294 60.8867C248.432 61.3237 248.18 61.6543 247.736 61.6263L239.773 61.15C239.531 61.1169 239.304 61.0212 239.117 60.8736C238.931 60.7261 238.792 60.5326 238.717 60.3151L235.825 45.6686C235.687 45.2372 235.939 44.9066 236.383 44.9346L244.345 45.4109C244.588 45.4426 244.816 45.5379 245.003 45.6857C245.19 45.8335 245.328 46.0276 245.401 46.2457Z" fill="#37474F"/>
<path d="M244.454 46.1505L247.352 60.8138C247.49 61.2452 247.238 61.5758 246.794 61.5478L238.825 61.0715C238.584 61.0394 238.357 60.9439 238.171 60.7961C237.985 60.6484 237.848 60.4544 237.775 60.2367L234.901 45.579C234.763 45.1419 235.015 44.8169 235.459 44.8393L243.427 45.3212C243.664 45.3562 243.886 45.4524 244.067 45.5989C244.249 45.7455 244.382 45.9366 244.454 46.1505Z" fill="#455A64"/>
<path d="M242.227 46.6772C242.222 46.8025 242.256 46.9266 242.326 47.0338C242.395 47.1409 242.498 47.2263 242.619 47.2791C242.741 47.3319 242.877 47.3497 243.01 47.3303C243.143 47.3109 243.266 47.2551 243.365 47.17C243.463 47.085 243.533 46.9744 243.564 46.8525C243.595 46.7305 243.587 46.6026 243.541 46.485C243.494 46.3674 243.411 46.2653 243.302 46.1918C243.193 46.1183 243.064 46.0766 242.929 46.0721C242.841 46.0683 242.752 46.081 242.669 46.1095C242.585 46.1379 242.509 46.1816 242.443 46.2378C242.378 46.2941 242.325 46.3619 242.288 46.4373C242.251 46.5127 242.231 46.5943 242.227 46.6772Z" fill="#263238"/>
<path d="M269.57 69.5771C264.53 78.3123 253.712 89.4345 249.524 89.2664C247.532 89.1879 243.944 89.4513 241.454 87.1764C236.023 82.2177 231.781 73.0454 231.115 67.8849C230.875 66.0527 240.578 62.6012 241.886 64.1533C244.952 67.7897 248.36 74.7992 248.942 74.7992C251.09 74.7543 259.862 68.6693 265.988 64.383C273.423 59.1329 271.58 66.0975 269.57 69.5771Z" fill="#DD6A57"/>
<path d="M231.433 58.4829C232.633 54.8465 233.569 54.0845 232.849 50.5041C232.381 48.1564 233.785 46.8677 235.435 48.8232C238.135 52.0169 237.613 57.0205 236.899 58.7014L231.433 58.4829Z" fill="#DD6A57"/>
<path d="M231.481 69.493C231.481 69.493 230.023 64.2597 230.911 60.2647C231.511 57.5024 233.587 51.6247 242.125 48.9128C244.154 48.2684 247.526 48.6943 244.628 50.8683C242.569 52.4091 240.763 52.807 239.737 53.9108C239.737 53.9108 243.968 54.9249 244.58 56.8468C245.109 58.527 245.51 60.2403 245.78 61.9736C245.45 62.092 245.114 62.1912 244.772 62.2706C244.772 62.2706 245.288 64.086 243.722 66.5402L231.481 69.493Z" fill="#DD6A57"/>
<path d="M231.949 57.7153C233.215 56.8188 235.927 54.9698 238.705 54.1741C241.795 53.2944 248.006 52.3699 248.678 54.5103C249.17 56.0736 246.836 56.6227 246.836 56.6227C246.836 56.6227 249.488 56.7459 249.602 58.2532C249.704 59.6259 247.868 59.9341 247.868 59.9341C247.868 59.9341 249.464 60.2703 249.29 61.615C249.086 63.2287 245.78 62.265 244.057 63.7274C243.673 64.0636 231.949 57.7153 231.949 57.7153Z" fill="#DD6A57"/>
<path d="M239.161 57.3791C241.558 56.3965 244.217 56.117 246.788 56.5779C246.854 56.5779 246.872 56.6451 246.788 56.6451C244.216 56.6095 241.649 56.8654 239.143 57.4071C239.143 57.4071 239.143 57.3847 239.161 57.3791Z" fill="#263238"/>
<path d="M240.205 60.2535C242.677 59.4885 245.324 59.3589 247.868 59.8781C247.934 59.8781 247.952 59.9509 247.868 59.9453C245.302 59.7865 242.726 59.8993 240.188 60.2815C240.188 60.2815 240.187 60.2535 240.205 60.2535Z" fill="#263238"/>
<path d="M230.803 71.6222C230.803 71.6222 237.727 86.3247 242.137 88.213C246.547 90.1012 249.266 89.8939 250.958 89.7202C251.605 89.6073 252.218 89.3666 252.758 89.0142C257.48 86.2127 266.246 75.9142 269.906 70.0533C272.648 65.6549 272.612 61.5366 268.778 62.6684C267.475 63.1081 266.258 63.7462 265.178 64.5567C257.978 69.5995 249.632 74.3509 249.26 74.1436C248.888 73.9363 245.263 67.8625 245.263 67.8625L230.803 71.6222Z" fill="#0D6073"/>
<path d="M248.666 77.2253C248.744 77.8867 248.641 78.5558 248.366 79.1696C248.318 78.8405 248.318 78.5069 248.366 78.1778C248.415 77.8484 248.516 77.5275 248.666 77.2253Z" fill="white"/>
<path d="M239.629 80.8617C239.677 81.1908 239.677 81.5244 239.629 81.8535C239.583 82.1822 239.486 82.503 239.341 82.806C239.293 82.4769 239.293 82.1433 239.341 81.8143C239.39 81.4859 239.487 81.1654 239.629 80.8617Z" fill="white"/>
<path d="M255.56 84.4085C255.608 84.7375 255.608 85.0712 255.56 85.4002C255.514 85.7291 255.417 86.05 255.272 86.3528C255.186 85.6913 255.289 85.0204 255.572 84.4085H255.56Z" fill="white"/>
<path d="M259.934 69.9637C259.982 70.2927 259.982 70.6264 259.934 70.9554C259.888 71.2843 259.791 71.6052 259.646 71.908C259.598 71.5789 259.598 71.2453 259.646 70.9162C259.693 70.5875 259.79 70.2667 259.934 69.9637Z" fill="white"/>
<path d="M261.344 75.8862C260.636 75.9592 259.919 75.8628 259.262 75.606C259.614 75.5611 259.972 75.5611 260.324 75.606C260.677 75.6532 261.02 75.7475 261.344 75.8862Z" fill="white"/>
<path d="M242.906 77.6231C242.553 77.668 242.196 77.668 241.844 77.6231C241.49 77.5815 241.144 77.4928 240.818 77.3598C241.169 77.3092 241.528 77.3092 241.88 77.3598C242.233 77.4014 242.579 77.4901 242.906 77.6231Z" fill="white"/>
<path d="M252.302 82.7556C251.95 82.8061 251.592 82.8061 251.24 82.7556C250.888 82.7146 250.544 82.6259 250.22 82.4922C250.927 82.4139 251.645 82.5085 252.302 82.7668V82.7556Z" fill="white"/>
<path d="M234.457 72.5243C234.105 72.572 233.747 72.572 233.395 72.5243C233.041 72.4826 232.696 72.394 232.369 72.2609C232.722 72.216 233.079 72.216 233.431 72.2609C233.785 72.3027 234.13 72.3914 234.457 72.5243Z" fill="white"/>
<path d="M243.583 87.5742C242.874 87.6523 242.154 87.5577 241.495 87.2997C241.847 87.2491 242.205 87.2491 242.557 87.2997C242.912 87.3449 243.257 87.4374 243.583 87.5742Z" fill="white"/>
<path d="M270.686 63.1503C270.977 63.2706 271.284 63.3535 271.598 63.3969C271.552 63.3041 271.495 63.2159 271.43 63.1335C271.183 63.1083 270.932 63.114 270.686 63.1503Z" fill="white"/>
<path d="M253.16 73.6113C253.44 73.8156 253.688 74.055 253.898 74.3229C254.117 74.5849 254.292 74.8756 254.42 75.1858C254.137 74.9844 253.888 74.7445 253.682 74.4742C253.461 74.2138 253.284 73.9226 253.16 73.6113Z" fill="white"/>
<path d="M244.502 81.8311C244.783 82.0353 245.034 82.2747 245.246 82.5427C245.462 82.8058 245.638 83.0963 245.768 83.4055C245.483 83.2041 245.232 82.9643 245.024 82.6939C244.807 82.4308 244.631 82.1403 244.502 81.8311Z" fill="white"/>
<path d="M239.563 70.9386C239.845 71.1408 240.095 71.3784 240.307 71.6446C240.524 71.9077 240.7 72.1982 240.829 72.5075C240.545 72.3061 240.294 72.0662 240.085 71.7959C239.87 71.534 239.694 71.2455 239.563 70.9386Z" fill="white"/>
<path d="M258.632 80.8057C258.912 81.01 259.16 81.2494 259.37 81.5173C259.589 81.7793 259.765 82.07 259.892 82.3802C259.335 81.9646 258.901 81.4225 258.632 80.8057Z" fill="white"/>
<path d="M265.154 66.9772C265.437 67.1779 265.688 67.4157 265.898 67.6832C266.115 67.9463 266.291 68.2369 266.42 68.5461C266.139 68.3439 265.888 68.1063 265.676 67.8401C265.462 67.5755 265.286 67.2853 265.154 66.9772Z" fill="white"/>
<path d="M265.58 73.7402C266.019 73.2146 266.598 72.8067 267.26 72.5579C267.045 72.8223 266.791 73.0563 266.504 73.2527C266.221 73.4529 265.91 73.6168 265.58 73.7402Z" fill="white"/>
<path d="M234.943 76.9788C235.159 76.7132 235.416 76.479 235.705 76.284C235.987 76.0815 236.298 75.9173 236.629 75.7965C236.187 76.3208 235.606 76.7283 234.943 76.9788Z" fill="white"/>
<path d="M244.37 74.3285C244.585 74.0659 244.839 73.8338 245.126 73.6393C245.406 73.4351 245.717 73.2708 246.05 73.1519C245.833 73.4131 245.578 73.645 245.294 73.841C245.012 74.0444 244.701 74.2086 244.37 74.3285Z" fill="white"/>
<path d="M254.75 79.7579C254.965 79.4953 255.22 79.2632 255.506 79.0687C255.786 78.8645 256.098 78.7002 256.43 78.5813C256.213 78.8425 255.959 79.0745 255.674 79.2704C255.391 79.4718 255.08 79.6358 254.75 79.7579Z" fill="white"/>
<path d="M248.504 87.8544C248.722 87.5929 248.979 87.361 249.266 87.1652C249.545 86.9587 249.856 86.7942 250.19 86.6777C249.973 86.9405 249.716 87.1726 249.428 87.3669C249.147 87.5711 248.836 87.7354 248.504 87.8544Z" fill="white"/>
<path opacity="0.1" d="M252.782 89.0142C257.504 86.2127 266.27 75.9142 269.93 70.0533C272.672 65.6549 272.636 61.5366 268.802 62.6684C266.702 66.1255 257.378 81.2651 252.782 89.0142Z" fill="black"/>
<path d="M232.567 74.3285C233.095 74.0876 238.069 72.5691 239.167 72.2609C240.265 71.9528 244.681 70.6529 245.833 70.4231C245.841 70.426 245.848 70.4311 245.853 70.4376C245.857 70.444 245.86 70.4517 245.86 70.4595C245.86 70.4674 245.857 70.4751 245.853 70.4815C245.848 70.488 245.841 70.4931 245.833 70.496C244.753 70.9218 240.289 72.2441 239.185 72.5803C238.081 72.9165 233.137 74.3173 232.585 74.4013C232.537 74.4069 232.531 74.3453 232.567 74.3285Z" fill="#263238"/>
<path d="M256.502 100.08C256.982 100.641 290.835 102.613 291.021 102.422C291.531 101.918 283.629 67.1845 276.392 61.0435C274.838 59.7268 270.098 60.7578 268.79 61.7271C267.968 62.3378 265.838 66.5122 264.344 69.9917C261.368 76.962 256.076 99.5873 256.502 100.08Z" fill="#263238"/>
<path d="M269.66 60.388C268.208 61.1724 266.594 65.8398 269.564 66.8148C272.534 67.7897 275.924 63.5986 276.518 62.1866C277.112 60.7746 272.786 58.7015 269.66 60.388Z" fill="#0D6073"/>
<path d="M269.864 66.1872C271.73 66.6186 274.964 63.9796 276.26 61.8336C276.344 61.6823 276.122 60.119 275.942 58.2084C275.84 57.0485 275.75 55.7542 275.762 54.5663L267.776 56.2977C268.215 57.7866 268.454 59.3204 268.49 60.8642C268.489 61.0264 268.469 61.188 268.43 61.3461C268.432 61.3741 268.432 61.4022 268.43 61.4301C268.25 62.3547 268.064 65.7669 269.864 66.1872Z" fill="#DD6A57"/>
<path d="M275.384 54.6504C275.12 56.1352 273.854 61.4301 269.24 61.4862C268.965 61.4876 268.691 61.4708 268.418 61.4358C268.414 61.4079 268.414 61.3796 268.418 61.3517C268.454 61.1931 268.474 61.0318 268.478 60.8698C268.435 59.3259 268.191 57.7925 267.752 56.3033L275.384 54.6504Z" fill="#263238"/>
<path d="M276.164 45.3044C277.215 47.8818 276.266 55.5861 274.364 57.4071C271.634 60.0462 266.888 60.5785 264.416 57.4519C262.016 54.4263 263.444 44.4079 265.574 42.727C268.73 40.2504 274.616 41.4887 276.164 45.3044Z" fill="#DD6A57"/>
<path d="M268.706 50.4425C268.706 50.4425 268.748 50.4425 268.742 50.4929C268.664 51.0084 268.664 51.6135 269.15 51.8376C269.15 51.8376 269.15 51.8713 269.15 51.8657C268.538 51.7256 268.544 50.9243 268.706 50.4425Z" fill="#263238"/>
<path d="M269.264 49.9494C270.164 49.983 270.038 51.6639 269.204 51.6303C268.37 51.5967 268.502 49.927 269.264 49.9494Z" fill="#263238"/>
<path d="M265.58 50.252C265.58 50.252 265.538 50.252 265.532 50.2968C265.532 50.8179 265.394 51.4174 264.878 51.5519V51.5855C265.502 51.5407 265.652 50.7282 265.58 50.252Z" fill="#263238"/>
<path d="M265.124 49.6748C264.23 49.5572 264.038 51.2325 264.86 51.3558C265.682 51.479 265.874 49.7813 265.124 49.6748Z" fill="#263238"/>
<path d="M270.032 49.2322C269.792 49.1537 269.582 49.0529 269.354 48.9576C269.1 48.8905 268.876 48.7467 268.718 48.5486C268.681 48.4782 268.67 48.3984 268.686 48.3215C268.703 48.2446 268.746 48.1748 268.808 48.1228C268.954 48.0441 269.12 48.0027 269.288 48.0027C269.457 48.0027 269.622 48.0441 269.768 48.1228C270.094 48.2328 270.364 48.4527 270.524 48.7391C270.549 48.8046 270.554 48.8751 270.538 48.9429C270.523 49.0108 270.488 49.0734 270.438 49.1242C270.387 49.1749 270.322 49.2118 270.251 49.2308C270.18 49.2498 270.104 49.2503 270.032 49.2322Z" fill="#263238"/>
<path d="M264.476 49.1593C264.72 49.1296 264.963 49.0885 265.202 49.0361C265.466 49.0229 265.719 48.9305 265.922 48.7727C265.974 48.7101 266.002 48.6332 266.002 48.5542C266.002 48.4752 265.974 48.3984 265.922 48.3357C265.804 48.2248 265.655 48.1456 265.493 48.1062C265.33 48.0668 265.16 48.0687 264.998 48.1116C264.654 48.149 264.338 48.3049 264.11 48.5486C264.062 48.6077 264.033 48.6788 264.027 48.753C264.021 48.8273 264.039 48.9015 264.078 48.9664C264.117 49.0314 264.175 49.0843 264.246 49.1186C264.317 49.1529 264.397 49.167 264.476 49.1593Z" fill="#263238"/>
<path d="M269.27 55.3452C269.126 55.4572 268.982 55.6141 268.778 55.6197C268.568 55.6013 268.364 55.5441 268.178 55.4516C268.25 55.5589 268.351 55.6462 268.472 55.7044C268.592 55.7625 268.727 55.7894 268.862 55.7822C268.978 55.7616 269.084 55.7098 269.169 55.6331C269.253 55.5563 269.311 55.4582 269.336 55.3508C269.336 55.3396 269.294 55.3284 269.27 55.3452Z" fill="#263238"/>
<path d="M268.802 53.7483C268.645 53.9444 268.446 54.1082 268.218 54.2296C267.989 54.3511 267.737 54.4275 267.476 54.4543C267.249 54.4822 267.019 54.4822 266.792 54.4543H266.66L266.54 54.4263C266.511 54.4198 266.484 54.404 266.466 54.3816C266.447 54.3591 266.437 54.3314 266.438 54.303C266.435 54.2863 266.435 54.2693 266.438 54.2526V54.2077C266.438 53.8043 266.546 53.1992 266.546 53.1992C266.384 53.2608 265.556 53.5466 265.586 53.3393C265.772 51.5334 266.154 49.7499 266.726 48.0163C266.73 48.0064 266.737 47.9978 266.746 47.9918C266.755 47.9857 266.766 47.9825 266.777 47.9825C266.788 47.9825 266.799 47.9857 266.808 47.9918C266.818 47.9978 266.824 48.0064 266.828 48.0163C266.666 49.6972 266.192 51.3165 266 52.9919C266.293 52.8826 266.603 52.8164 266.918 52.7958C266.978 52.7958 266.726 53.9668 266.732 54.1461C267.081 54.2027 267.439 54.1932 267.785 54.1181C268.13 54.043 268.456 53.9039 268.742 53.7091C268.796 53.6698 268.838 53.7091 268.802 53.7483Z" fill="#263238"/>
<path d="M267.116 54.3478C267.354 54.6288 267.666 54.847 268.022 54.981C268.218 55.0379 268.427 55.0379 268.622 54.981C269.06 54.8689 269.066 54.4879 268.982 54.1629C268.933 53.9916 268.862 53.8261 268.772 53.6699C268.312 54.0547 267.731 54.2922 267.116 54.3478Z" fill="#263238"/>
<path d="M268.022 54.981C268.218 55.0379 268.427 55.0379 268.622 54.981C269.06 54.8689 269.066 54.4879 268.982 54.1629C268.747 54.1779 268.524 54.2669 268.349 54.4155C268.175 54.564 268.06 54.7634 268.022 54.981Z" fill="#F392B9"/>
<path d="M274.329 51.395C274.329 51.395 276.045 48.8512 277.275 49.4115C278.505 49.9718 277.275 53.6082 275.913 54.1573C275.741 54.2396 275.554 54.2887 275.362 54.3016C275.169 54.3145 274.976 54.2909 274.794 54.2322C274.612 54.1736 274.444 54.0811 274.301 53.9604C274.158 53.8397 274.043 53.6932 273.963 53.5298L274.329 51.395Z" fill="#DD6A57"/>
<path d="M276.903 50.4481C276.903 50.4481 276.903 50.4481 276.903 50.4817C276.461 50.7113 276.077 51.025 275.774 51.4024C275.471 51.7799 275.257 52.2126 275.145 52.6725C275.196 52.5783 275.268 52.4957 275.357 52.4301C275.446 52.3646 275.549 52.3177 275.659 52.2927C275.769 52.2677 275.883 52.2651 275.994 52.2852C276.105 52.3053 276.211 52.3476 276.303 52.4091C276.303 52.4091 276.303 52.4652 276.303 52.4596C276.127 52.4153 275.941 52.4228 275.77 52.481C275.6 52.5392 275.452 52.6452 275.349 52.7846C275.177 53.0194 275.034 53.2712 274.923 53.5354C274.881 53.625 274.718 53.5858 274.748 53.4905C274.664 52.3083 275.559 50.6218 276.903 50.4481Z" fill="#263238"/>
<path d="M264.614 46.0889C267.308 47.6857 270.806 45.0187 270.806 45.0187C271.053 45.553 271.479 45.9979 272.02 46.286C272.561 46.5741 273.188 46.6898 273.806 46.6155C273.806 46.6155 274.478 50.7562 275.655 50.7114C277.455 50.6442 277.779 44.9514 277.173 43.8588C276.935 43.5105 276.622 43.212 276.255 42.9825C275.887 42.7529 275.472 42.5972 275.036 42.5253C274.844 41.856 274.387 41.2796 273.758 40.9116C272.504 40.0823 268.358 41.3934 268.358 41.3934C268.097 40.8757 267.708 40.4227 267.224 40.0711C267.109 39.9831 266.975 39.9179 266.832 39.8794C266.688 39.841 266.538 39.83 266.39 39.8473C266.242 39.8646 266.099 39.9097 265.97 39.98C265.841 40.0502 265.729 40.1441 265.64 40.256C265.876 40.5567 266.036 40.9034 266.108 41.2702C266.366 42.4804 265.298 42.5141 265.268 41.4103C265.241 40.9964 265.373 40.5872 265.64 40.256C265.088 39.5556 264.218 39.3483 263.714 39.7517C262.742 40.4857 262.37 44.7609 264.614 46.0889Z" fill="#263238"/>
<path d="M279.495 63.8507C289.635 73.7066 304.419 98.6628 306.243 102.243C307.486 104.675 293.883 111.079 293.307 109.309C292.569 107.067 280.707 79.1136 277.575 68.5741C275.835 62.7637 277.401 61.8112 279.495 63.8507Z" fill="#DD6A57"/>
<path d="M292.665 107.639C293.139 108.849 294.753 113.993 295.887 114.632C297.021 115.27 302.943 115.136 305.931 115.136C308.919 115.136 309.531 114.357 309.459 113.393C309.387 112.43 303.141 112.273 303.141 112.273C303.141 112.273 311.511 114.514 313.618 114.884C315.724 115.254 320.578 116.391 321.28 114.761C321.592 114.026 320.266 113.281 320.266 113.281C320.266 113.281 322.3 113.842 322.624 112.889C322.996 111.813 321.376 111.208 321.376 111.208C321.376 111.208 322.648 111.443 322.678 110.569C322.744 108.608 314.782 107.645 314.782 107.645C314.782 107.645 320.878 110.418 321.07 108.821C321.346 106.58 308.847 104.182 307.545 103.218C306.695 102.549 305.989 101.735 305.463 100.82L292.665 107.639Z" fill="#DD6A57"/>
<path d="M309.412 113.881C309.433 113.745 309.418 113.606 309.369 113.476C309.32 113.346 309.238 113.229 309.13 113.136C308.913 112.951 308.666 112.802 308.398 112.693C307.845 112.474 307.273 112.301 306.688 112.177C305.487 111.897 304.287 111.701 303.087 111.41C304.33 111.393 305.57 111.523 306.777 111.796C307.394 111.928 307.988 112.139 308.542 112.424C308.828 112.572 309.077 112.774 309.274 113.018C309.375 113.138 309.441 113.281 309.465 113.432C309.489 113.584 309.471 113.738 309.412 113.881Z" fill="#263238"/>
<path d="M320.266 113.259C319.402 113.063 318.556 112.833 317.71 112.609C316.864 112.385 316.018 112.133 315.172 111.897L312.652 111.158C311.812 110.911 310.972 110.67 310.12 110.435C311.002 110.521 311.876 110.668 312.736 110.872C313.6 111.051 314.452 111.287 315.298 111.522C316.144 111.757 316.984 112.026 317.806 112.323C318.628 112.62 319.462 112.923 320.266 113.259Z" fill="#263238"/>
<path d="M312.141 108.479C312.949 108.529 313.751 108.633 314.542 108.793C315.34 108.941 316.129 109.128 316.906 109.354C317.684 109.579 318.447 109.846 319.192 110.155C319.94 110.453 320.664 110.801 321.358 111.197C320.59 110.945 319.84 110.67 319.072 110.435C318.304 110.2 317.548 109.947 316.78 109.729C316.012 109.51 315.238 109.292 314.464 109.079C313.69 108.866 312.904 108.681 312.141 108.479Z" fill="#263238"/>
<path d="M313.372 106.614C316.006 106.833 318.542 107.653 320.758 109.001C319.516 108.586 318.316 108.154 317.086 107.768C315.856 107.381 314.626 106.989 313.372 106.614Z" fill="#263238"/>
<path d="M277.701 71.3084C280.101 80.9682 291.603 107.392 291.603 107.392L301.935 102.742L307.144 100.394C307.144 100.394 289.401 74.5078 282.153 66.0415C281.589 65.3915 281.079 64.8312 280.611 64.3606C276.117 59.8781 275.841 63.8563 277.701 71.3084Z" fill="#0D6073"/>
<path d="M290.745 104.518C296.823 101.218 303.747 98.618 304.917 98.0857C304.971 98.0857 305.007 98.1473 304.953 98.1697C303.753 98.6404 296.205 102.411 290.781 104.608C290.703 104.63 290.703 104.518 290.745 104.518Z" fill="#263238"/>
<path d="M288.561 76.9844C288.609 77.3134 288.609 77.6471 288.561 77.9761C288.517 78.3048 288.422 78.6257 288.279 78.9287C288.225 78.6019 288.225 78.2693 288.279 77.9425C288.323 77.6122 288.418 77.2896 288.561 76.9844Z" fill="white"/>
<path d="M283.785 85.4675C283.833 85.7965 283.833 86.1302 283.785 86.4592C283.74 86.7877 283.645 87.1085 283.503 87.4117C283.449 87.0831 283.449 86.7487 283.503 86.42C283.547 86.0914 283.642 85.7705 283.785 85.4675Z" fill="white"/>
<path d="M295.821 98.8645C295.869 99.1917 295.869 99.5235 295.821 99.8506C295.774 100.181 295.677 100.504 295.533 100.809C295.485 100.48 295.485 100.146 295.533 99.817C295.579 99.4881 295.676 99.1673 295.821 98.8645Z" fill="white"/>
<path d="M295.455 84.1732C295.509 84.4999 295.509 84.8325 295.455 85.1593C295.41 85.4896 295.315 85.8122 295.173 86.1174C295.122 85.7886 295.122 85.4545 295.173 85.1257C295.217 84.797 295.312 84.4762 295.455 84.1732Z" fill="white"/>
<path d="M299.103 90.3646C299.151 90.6936 299.151 91.0273 299.103 91.3563C299.059 91.6866 298.964 92.0093 298.821 92.3145C298.767 91.9858 298.767 91.6514 298.821 91.3227C298.866 90.9924 298.961 90.6698 299.103 90.3646Z" fill="white"/>
<path d="M282.903 67.7337C282.55 67.7814 282.193 67.7814 281.841 67.7337C281.489 67.6927 281.145 67.604 280.821 67.4703C281.171 67.4255 281.526 67.4255 281.877 67.4703C282.23 67.5121 282.576 67.6008 282.903 67.7337Z" fill="white"/>
<path d="M282.801 77.3598C282.092 77.4328 281.376 77.3364 280.719 77.0796C281.071 77.0347 281.428 77.0347 281.781 77.0796C282.133 77.1268 282.477 77.2211 282.801 77.3598Z" fill="white"/>
<path d="M292.167 82.5202C291.817 82.5651 291.461 82.5651 291.111 82.5202C290.757 82.4767 290.412 82.3861 290.085 82.2513C290.437 82.2035 290.795 82.2035 291.147 82.2513C291.499 82.294 291.843 82.3846 292.167 82.5202Z" fill="white"/>
<path d="M301.503 102.013C301.153 102.058 300.798 102.058 300.447 102.013C300.094 101.969 299.749 101.881 299.421 101.75C299.773 101.7 300.131 101.7 300.483 101.75C300.835 101.791 301.179 101.88 301.503 102.013Z" fill="white"/>
<path d="M291.753 102.338C291.403 102.383 291.047 102.383 290.697 102.338C290.343 102.297 289.998 102.208 289.671 102.075C290.023 102.024 290.381 102.024 290.733 102.075C291.085 102.116 291.428 102.205 291.753 102.338Z" fill="white"/>
<path d="M288.903 92.7011C288.55 92.7459 288.193 92.7459 287.841 92.7011C287.489 92.6575 287.145 92.5669 286.821 92.4321C287.173 92.3872 287.53 92.3872 287.883 92.4321C288.234 92.4777 288.578 92.5682 288.903 92.7011Z" fill="white"/>
<path d="M298.167 95.3289C298.447 95.5332 298.695 95.7726 298.905 96.0405C299.126 96.3009 299.302 96.5921 299.427 96.9034C299.146 96.7006 298.897 96.4609 298.689 96.1918C298.47 95.9299 298.295 95.6391 298.167 95.3289Z" fill="white"/>
<path d="M284.391 81.5957C284.671 81.7981 284.919 82.0357 285.129 82.3017C285.345 82.565 285.521 82.8555 285.651 83.1646C285.37 82.9638 285.121 82.726 284.913 82.4586C284.693 82.1975 284.517 81.9065 284.391 81.5957Z" fill="white"/>
<path d="M279.465 70.6977C279.746 70.9005 279.995 71.1402 280.203 71.4093C280.421 71.6713 280.597 71.962 280.725 72.2722C280.443 72.0693 280.195 71.8297 279.987 71.5606C279.766 71.3002 279.589 71.009 279.465 70.6977Z" fill="white"/>
<path d="M293.703 88.7957C293.986 88.9964 294.237 89.2342 294.447 89.5017C294.662 89.7663 294.837 90.0565 294.969 90.3646C294.686 90.1639 294.436 89.9261 294.225 89.6586C294.01 89.3947 293.834 89.1044 293.703 88.7957Z" fill="white"/>
<path d="M289.467 97.29C289.749 97.4942 289.999 97.7337 290.211 98.0016C290.428 98.2647 290.604 98.5553 290.733 98.8645C290.172 98.4514 289.735 97.9087 289.467 97.29Z" fill="white"/>
<path d="M302.259 98.2145C302.702 97.6903 303.283 97.2828 303.945 97.0323C303.503 97.5566 302.922 97.9641 302.259 98.2145Z" fill="white"/>
<path d="M293.703 105.196C293.92 104.933 294.177 104.701 294.465 104.507C294.744 104.3 295.056 104.136 295.389 104.019C295.172 104.282 294.915 104.514 294.627 104.709C294.347 104.913 294.035 105.077 293.703 105.196Z" fill="white"/>
<path d="M292.845 95.0488C293.287 94.5245 293.868 94.117 294.531 93.8665C294.312 94.1297 294.056 94.3634 293.769 94.5613C293.487 94.7638 293.176 94.9279 292.845 95.0488Z" fill="white"/>
<path d="M284.271 74.0932C284.486 73.8288 284.74 73.5948 285.027 73.3984C285.308 73.1959 285.62 73.0318 285.951 72.9109C285.735 73.1765 285.478 73.4107 285.189 73.6057C284.908 73.807 284.599 73.971 284.271 74.0932Z" fill="white"/>
<path d="M277.143 66.0527C277.358 65.7884 277.612 65.5544 277.899 65.3579C278.181 65.1566 278.492 64.9925 278.823 64.8705C278.608 65.1348 278.353 65.3688 278.067 65.5652C277.783 65.7654 277.472 65.9294 277.143 66.0527Z" fill="white"/>
<path d="M288.405 87.6191C288.621 87.3561 288.876 87.1223 289.161 86.9243C289.444 86.7241 289.755 86.5601 290.085 86.4368C289.87 86.7011 289.615 86.9351 289.329 87.1316C289.045 87.3318 288.735 87.4957 288.405 87.6191Z" fill="white"/>
</svg>
