<svg width="60" height="60" viewBox="0 0 60 60" fill="none" xmlns="http://www.w3.org/2000/svg">
<path d="M54.6797 2.26406H5.32498C3.63447 2.26406 2.26404 3.63449 2.26404 5.325V54.6797C2.26404 56.3702 3.63447 57.7406 5.32498 57.7406H54.6797C56.3702 57.7406 57.7406 56.3702 57.7406 54.6797V5.325C57.7406 3.63449 56.3702 2.26406 54.6797 2.26406Z" fill="#3D5A98"/>
<path d="M40.5375 57.7359V36.2531H47.7469L48.825 27.8813H40.5375V22.5375C40.5375 20.1141 41.2125 18.4594 44.686 18.4594H49.1203V10.9594C46.9731 10.7356 44.8152 10.6292 42.6563 10.6406C36.2719 10.6406 31.875 14.5313 31.875 21.7078V27.8813H24.6656V36.2531H31.875V57.7359H40.5375Z" fill="white"/>
</svg>
