<svg width="81" height="82" viewBox="0 0 81 82" fill="none" xmlns="http://www.w3.org/2000/svg">
<path d="M40.9708 62.1184C38.3187 62.1184 35.7751 61.3019 33.8998 59.8485C32.0244 58.3951 30.9708 56.4238 30.9708 54.3684C30.9708 50.0672 35.4208 46.6184 40.9708 46.6184C43.623 46.6184 46.1665 47.4349 48.0419 48.8883C49.9173 50.3417 50.9708 52.313 50.9708 54.3684C50.9708 56.4238 49.9173 58.3951 48.0419 59.8485C46.1665 61.3019 43.623 62.1184 40.9708 62.1184ZM70.9708 73.7434V34.9934H10.9708V73.7434H70.9708ZM70.9708 27.2434C73.623 27.2434 76.1665 28.0599 78.0419 29.5133C79.9173 30.9667 80.9708 32.938 80.9708 34.9934V73.7434C80.9708 75.7988 79.9173 77.7701 78.0419 79.2235C76.1665 80.6769 73.623 81.4934 70.9708 81.4934H10.9708C8.31866 81.4934 5.77512 80.6769 3.89976 79.2235C2.02439 77.7701 0.970825 75.7988 0.970825 73.7434V34.9934C0.970825 30.6922 5.42083 27.2434 10.9708 27.2434H15.9708V19.4934C15.9708 14.3548 18.6047 9.42673 23.2932 5.79321C27.9816 2.1597 34.3404 0.118408 40.9708 0.118408C44.2539 0.118408 47.5048 0.619557 50.5379 1.59324C53.571 2.56693 56.327 3.99408 58.6485 5.79321C60.97 7.59235 62.8115 9.72823 64.0678 12.0789C65.3242 14.4296 65.9708 16.949 65.9708 19.4934V27.2434H70.9708ZM40.9708 7.86841C36.9926 7.86841 33.1773 9.09318 30.3642 11.2733C27.5512 13.4534 25.9708 16.4103 25.9708 19.4934V27.2434H55.9708V19.4934C55.9708 16.4103 54.3905 13.4534 51.5774 11.2733C48.7644 9.09318 44.9491 7.86841 40.9708 7.86841Z" fill="#0D6073"/>
</svg>
