<svg width="60" height="60" viewBox="0 0 60 60" fill="none" xmlns="http://www.w3.org/2000/svg">
<rect width="60" height="60" rx="4" fill="#DCDCDC"/>
<g clip-path="url(#clip0_332_4021)">
<path d="M39.546 6.02401C39.444 5.91001 35.769 6.06901 32.571 9.54001C29.373 13.008 29.865 16.986 29.937 17.088C30.009 17.19 34.497 17.349 37.362 13.314C40.227 9.27901 39.648 6.14101 39.546 6.02401ZM49.488 41.223C49.344 40.935 42.513 37.521 43.149 30.957C43.785 24.39 48.174 22.59 48.243 22.395C48.312 22.2 46.452 20.025 44.481 18.924C43.0339 18.1478 41.4322 17.703 39.792 17.622C39.468 17.613 38.343 17.337 36.03 17.97C34.506 18.387 31.071 19.737 30.126 19.791C29.178 19.845 26.358 18.225 23.325 17.796C21.384 17.421 19.326 18.189 17.853 18.78C16.383 19.368 13.587 21.042 11.631 25.491C9.67502 29.937 10.698 36.981 11.43 39.171C12.162 41.358 13.305 44.943 15.249 47.559C16.977 50.511 19.269 52.56 20.226 53.256C21.183 53.952 23.883 54.414 25.755 53.457C27.261 52.533 29.979 52.002 31.053 52.041C32.124 52.08 34.236 52.503 36.399 53.658C38.112 54.249 39.732 54.003 41.355 53.343C42.978 52.68 45.327 50.166 48.069 45.069C49.11 42.699 49.584 41.418 49.488 41.223Z" fill="black"/>
<path d="M39.546 6.02401C39.444 5.91001 35.769 6.06901 32.571 9.54001C29.373 13.008 29.865 16.986 29.937 17.088C30.009 17.19 34.497 17.349 37.362 13.314C40.227 9.27901 39.648 6.14101 39.546 6.02401ZM49.488 41.223C49.344 40.935 42.513 37.521 43.149 30.957C43.785 24.39 48.174 22.59 48.243 22.395C48.312 22.2 46.452 20.025 44.481 18.924C43.0339 18.1478 41.4322 17.703 39.792 17.622C39.468 17.613 38.343 17.337 36.03 17.97C34.506 18.387 31.071 19.737 30.126 19.791C29.178 19.845 26.358 18.225 23.325 17.796C21.384 17.421 19.326 18.189 17.853 18.78C16.383 19.368 13.587 21.042 11.631 25.491C9.67502 29.937 10.698 36.981 11.43 39.171C12.162 41.358 13.305 44.943 15.249 47.559C16.977 50.511 19.269 52.56 20.226 53.256C21.183 53.952 23.883 54.414 25.755 53.457C27.261 52.533 29.979 52.002 31.053 52.041C32.124 52.08 34.236 52.503 36.399 53.658C38.112 54.249 39.732 54.003 41.355 53.343C42.978 52.68 45.327 50.166 48.069 45.069C49.11 42.699 49.584 41.418 49.488 41.223Z" fill="black"/>
</g>
<defs>
<clipPath id="clip0_332_4021">
<rect width="48" height="48" fill="white" transform="translate(6 6)"/>
</clipPath>
</defs>
</svg>
