<svg width="100" height="100" viewBox="0 0 100 100" fill="none" xmlns="http://www.w3.org/2000/svg">
<circle cx="50" cy="50" r="50" fill="#0D6073"/>
<g clip-path="url(#clip0_334_4041)">
<path d="M15.9722 84.1892C16.2212 84.2541 16.4858 84.2182 16.7085 84.0894C16.9313 83.9605 17.0943 83.7491 17.1622 83.5009C19.165 76.0284 27.3044 74.0917 32.1694 72.9328C33.3886 72.6431 34.3511 72.4136 34.9772 72.1434C40.5189 69.7381 42.3253 65.8686 42.8658 63.0453C42.898 62.8773 42.8852 62.7038 42.8289 62.5424C42.7726 62.3809 42.6746 62.2371 42.545 62.1256C39.6594 59.6347 37.225 55.8956 35.6889 51.5945C35.6455 51.4711 35.5774 51.358 35.4886 51.262C33.4566 49.0531 32.29 46.7178 32.29 44.857C32.29 43.77 32.7003 43.0409 33.6239 42.4906C33.7622 42.4079 33.8778 42.2921 33.9603 42.1536C34.0428 42.0151 34.0895 41.8583 34.0964 41.6972C34.5261 31.7922 41.5805 23.995 50.2333 23.9445L50.4414 23.9581C59.1369 24.0786 66.1466 32.0431 66.3975 42.0881C66.401 42.2254 66.4337 42.3604 66.4933 42.4841C66.553 42.6078 66.6383 42.7174 66.7436 42.8056C67.3522 43.3209 67.6361 43.9742 67.6361 44.8609C67.6361 46.4184 66.8058 48.3336 65.3008 50.2509C65.2291 50.3431 65.1738 50.447 65.1375 50.5581C63.5819 55.4892 60.7897 59.8428 57.4803 62.5067C57.3432 62.6174 57.2386 62.7632 57.1777 62.9285C57.1167 63.0939 57.1017 63.2726 57.1341 63.4459C57.6747 66.2672 59.4811 70.1347 65.0228 72.5439C65.678 72.8278 66.695 73.0495 67.9841 73.3275C72.8005 74.3697 80.8603 76.1178 82.8378 83.5009C82.8709 83.6242 82.9281 83.7398 83.006 83.841C83.0838 83.9423 83.1809 84.0272 83.2916 84.0909C83.4023 84.1546 83.5244 84.196 83.651 84.2125C83.7777 84.229 83.9064 84.2204 84.0297 84.1872C84.153 84.154 84.2686 84.0969 84.3699 84.019C84.4711 83.9412 84.556 83.8441 84.6198 83.7334C84.6835 83.6227 84.7248 83.5006 84.7413 83.3739C84.7579 83.2473 84.7493 83.1186 84.7161 82.9953C82.4314 74.465 73.3003 72.4875 68.3964 71.4259C67.2589 71.1789 66.2769 70.967 65.7986 70.757C62.1819 69.1859 59.9536 66.7922 59.1661 63.6306C62.5241 60.747 65.3339 56.2981 66.94 51.3086C68.6453 49.092 69.5825 46.8092 69.5825 44.8589C69.5825 43.5581 69.1625 42.4731 68.3303 41.6253C67.8675 30.7286 60.0916 22.1478 50.4414 22.0097L50.1516 22.0059C40.6764 22.0564 32.8675 30.4117 32.185 41.1197C30.9678 42.0142 30.3494 43.2684 30.3494 44.8609C30.3494 47.1611 31.6503 49.9125 33.9272 52.4364C35.5003 56.7589 37.9386 60.5564 40.8416 63.2145C40.058 66.3878 37.8278 68.7892 34.2033 70.3622C33.7347 70.5664 32.8014 70.79 31.7203 71.0467C26.7794 72.2211 17.5861 74.4086 15.2839 82.9992C15.2174 83.2483 15.2525 83.5136 15.3816 83.7367C15.5107 83.9599 15.7231 84.1226 15.9722 84.1892Z" fill="white"/>
</g>
<defs>
<clipPath id="clip0_334_4041">
<rect width="70" height="62.2222" fill="white" transform="translate(15 22)"/>
</clipPath>
</defs>
</svg>
