<svg width="60" height="60" viewBox="0 0 60 60" fill="none" xmlns="http://www.w3.org/2000/svg">
<rect width="60" height="60" rx="4" fill="white"/>
<path d="M49.611 26.083H48V26H30V34H41.303C39.654 38.657 35.223 42 30 42C23.373 42 18 36.627 18 30C18 23.373 23.373 18 30 18C33.059 18 35.842 19.154 37.961 21.039L43.618 15.382C40.046 12.053 35.268 10 30 10C18.955 10 10 18.955 10 30C10 41.045 18.955 50 30 50C41.045 50 50 41.045 50 30C50 28.659 49.862 27.35 49.611 26.083Z" fill="#FFC107"/>
<path d="M12.306 20.691L18.877 25.51C20.655 21.108 24.961 18 30 18C33.059 18 35.842 19.154 37.961 21.039L43.618 15.382C40.046 12.053 35.268 10 30 10C22.318 10 15.656 14.337 12.306 20.691Z" fill="#FF3D00"/>
<path d="M29.9999 50C35.1659 50 39.8599 48.023 43.4089 44.808L37.2189 39.57C35.1435 41.1484 32.6074 42.0021 29.9999 42C24.7979 42 20.3809 38.683 18.7169 34.054L12.1949 39.079C15.5049 45.556 22.2269 50 29.9999 50Z" fill="#4CAF50"/>
<path d="M49.611 26.083H48V26H30V34H41.303C40.5142 36.2164 39.0934 38.1532 37.216 39.571L37.219 39.569L43.409 44.807C42.971 45.205 50 40 50 30C50 28.659 49.862 27.35 49.611 26.083Z" fill="#1976D2"/>
</svg>
